<svg width="17" height="20" viewBox="0 0 17 20" fill="none" xmlns="http://www.w3.org/2000/svg">
<path d="M14.1002 19.1976C13.0067 20.253 11.8128 20.0864 10.6636 19.5864C9.44737 19.0754 8.3316 19.0531 7.04845 19.5864C5.44173 20.2752 4.59374 20.0752 3.63417 19.1976C-1.81082 13.6094 -1.00746 5.09936 5.17395 4.78828C6.68025 4.86605 7.72908 5.6104 8.61054 5.67706C9.92716 5.41043 11.188 4.64386 12.5939 4.74385C14.2787 4.87716 15.5507 5.54374 16.3875 6.74359C12.9063 8.82111 13.732 13.3872 16.9231 14.6648C16.2871 16.3313 15.4614 17.9866 14.089 19.2087L14.1002 19.1976ZM8.49896 4.72163C8.3316 2.24416 10.3512 0.199975 12.672 0C12.9955 2.8663 10.0611 4.99937 8.49896 4.72163Z" fill="black"/>
</svg>
