<svg width="172" height="80" viewBox="0 0 172 80" fill="none" xmlns="http://www.w3.org/2000/svg">
<mask id="path-1-inside-1_572_52247" fill="white">
<path fill-rule="evenodd" clip-rule="evenodd" d="M8 0C3.58172 0 0 3.58172 0 8L0 72C0 76.4183 3.58172 80 8 80L152 80C156.418 80 160 76.4183 160 72V60L166 60C169.314 60 172 57.3137 172 54L172 26C172 22.6863 169.314 20 166 20L160 20L160 8C160 3.58172 156.418 0 152 0L8 0Z"/>
</mask>
<path d="M160 60V59L159 59V60L160 60ZM160 20H159V21H160V20ZM1 8C1 4.13401 4.13401 1 8 1L8 -1C3.02944 -1 -1 3.02944 -1 8L1 8ZM1 72L1 8L-1 8L-1 72H1ZM8 79C4.13401 79 1 75.866 1 72H-1C-1 76.9706 3.02944 81 8 81L8 79ZM152 79L8 79L8 81L152 81V79ZM159 72C159 75.866 155.866 79 152 79V81C156.971 81 161 76.9706 161 72H159ZM159 60V72H161V60L159 60ZM166 59L160 59V61L166 61V59ZM171 54C171 56.7614 168.761 59 166 59V61C169.866 61 173 57.866 173 54L171 54ZM171 26L171 54L173 54L173 26L171 26ZM166 21C168.761 21 171 23.2386 171 26L173 26C173 22.134 169.866 19 166 19V21ZM160 21L166 21V19L160 19V21ZM159 8L159 20L161 20L161 8L159 8ZM152 1C155.866 1 159 4.13401 159 8L161 8C161 3.02944 156.971 -1 152 -1V1ZM8 1L152 1V-1L8 -1L8 1Z" fill="black" mask="url(#path-1-inside-1_572_52247)"/>
</svg>
