<svg width="293" height="190" viewBox="0 0 293 190" fill="none" xmlns="http://www.w3.org/2000/svg">
<g opacity="0.04">
<line x1="40" y1="164.5" x2="293" y2="164.5" stroke="#120C31"/>
<line x1="40" y1="184.5" x2="293" y2="184.5" stroke="#120C31"/>
<line x1="40" y1="144.5" x2="293" y2="144.5" stroke="#120C31"/>
<line x1="40" y1="124.5" x2="293" y2="124.5" stroke="#120C31"/>
<line x1="40" y1="104.5" x2="293" y2="104.5" stroke="#120C31"/>
<line x1="40" y1="84.5" x2="293" y2="84.5" stroke="#120C31"/>
<line x1="40" y1="64.5" x2="293" y2="64.5" stroke="#120C31"/>
<line x1="40" y1="44.5" x2="293" y2="44.5" stroke="#120C31"/>
<line x1="40" y1="24.5" x2="293" y2="24.5" stroke="#120C31"/>
<line x1="40" y1="4.5" x2="293" y2="4.5" stroke="#120C31"/>
</g>
<path d="M277 172C284.667 172 285.333 184 293 184H40V26.4375C47.6667 26.4375 55.3333 38.4498 63 38.4498C70.6667 38.4498 70.6667 31.2425 78.3333 31.2425C86 31.2424 88.2727 37.5425 93.6667 43.2547C100.989 51.0089 101.333 67.2793 109 67.2793C116.667 67.2793 120.068 85.5 127.735 85.5C135.402 85.5 132 95.5083 139.667 95.5083C147.333 95.5083 147.333 90.5 155 90.5C162.667 90.5 162.667 105.5 170.333 105.5C178 105.5 178 120 185.667 120C193.333 120 193.333 111 201 111C208.667 111 208.667 146.5 216.333 146.5C224 146.5 224 140.5 231.667 140.5C239.333 140.5 239.333 149 247 149C254.667 149 254.667 136 262.333 136C270 136 269.333 172 277 172Z" fill="url(#paint0_linear_721_3)"/>
<path d="M293 184C285.333 184 284.667 172 277 172C269.333 172 270 136 262.333 136C254.667 136 254.667 149 247 149C239.333 149 239.333 140.5 231.667 140.5C224 140.5 224 146.5 216.333 146.5C208.667 146.5 208.667 111 201 111C193.333 111 193.333 120 185.667 120C178 120 178 105.5 170.333 105.5C162.667 105.5 162.667 90.5 155 90.5C147.333 90.5 147.333 95.5083 139.667 95.5083C132 95.5083 135.401 85.5 127.735 85.5C120.068 85.5 116.667 67.2793 109 67.2793C101.333 67.2793 100.989 51.0089 93.6667 43.2547C88.2727 37.5425 86 31.2424 78.3333 31.2425C70.6667 31.2425 70.6667 38.4498 63 38.4498C55.3333 38.4498 47.6667 26.4375 40 26.4375" stroke="#23587B"/>
<path d="M55.3333 103.316C47.6667 103.316 47.6667 88.9017 40 88.9016V177C40 181.418 43.5817 185 48 185H285C289.418 185 293 181.421 293 177.003V8C285.333 8.00001 277.667 38.4499 270 38.4499C262.333 38.4499 262.333 31.2426 254.667 31.2425C247 31.2425 244.727 37.5426 239.333 43.2548C232.011 51.0089 231.667 67.2794 224 67.2794C216.333 67.2794 216.333 88.9016 208.667 88.9016C201 88.9016 201 76.8893 193.333 76.8893C185.667 76.8893 185.667 62.4745 178 62.4745C170.333 62.4745 170.333 95.5083 162.667 95.5083C155 95.5083 155 81.6942 147.333 81.6942C139.667 81.6942 139.667 103.316 132 103.316C124.333 103.316 124.333 99.112 116.667 99.112C109 99.112 109 96.109 101.333 96.109C93.6666 96.109 93.6666 108.121 86 108.121C78.3333 108.121 78.3333 120.134 70.6667 120.134C63 120.134 63 103.316 55.3333 103.316Z" fill="url(#paint1_linear_721_3)"/>
<path d="M40 88.9016C47.6667 88.9017 47.6667 103.316 55.3333 103.316C63 103.316 63 120.134 70.6667 120.134C78.3333 120.134 78.3333 108.121 86 108.121C93.6667 108.121 93.6666 96.109 101.333 96.109C109 96.109 109 99.112 116.667 99.112C124.333 99.112 124.333 103.316 132 103.316C139.667 103.316 139.667 81.6942 147.333 81.6942C155 81.6942 155 95.5083 162.667 95.5083C170.333 95.5083 170.333 62.4745 178 62.4745C185.667 62.4745 185.667 76.8893 193.333 76.8893C201 76.8893 201 88.9016 208.667 88.9016C216.333 88.9016 216.333 67.2794 224 67.2794C231.667 67.2794 232.011 51.0089 239.333 43.2548C244.727 37.5426 247 31.2425 254.667 31.2425C262.333 31.2426 262.333 38.4499 270 38.4499C277.667 38.4499 285.333 8.00001 293 8" stroke="#FF823E"/>
<path d="M6.46688 107.16C6.46688 107.513 6.37688 107.833 6.19688 108.12C6.02354 108.4 5.78021 108.627 5.46688 108.8C5.15354 108.967 4.78688 109.06 4.36688 109.08C4.32021 109.08 4.28688 109.087 4.26688 109.1C4.25354 109.113 4.24688 109.14 4.24688 109.18V109.74C4.24688 109.827 4.20021 109.87 4.10688 109.87H3.75688C3.67021 109.87 3.62688 109.837 3.62688 109.77V109.17C3.62688 109.13 3.62021 109.103 3.60688 109.09C3.60021 109.083 3.57688 109.08 3.53688 109.08C2.98354 109.067 2.52354 108.967 2.15688 108.78C1.79688 108.593 1.48021 108.323 1.20688 107.97C1.12688 107.883 1.12021 107.81 1.18688 107.75L1.51688 107.44C1.55021 107.407 1.58688 107.39 1.62688 107.39C1.66688 107.39 1.70021 107.407 1.72688 107.44C1.95354 107.727 2.20688 107.953 2.48688 108.12C2.76688 108.28 3.11688 108.367 3.53688 108.38C3.60354 108.387 3.63688 108.36 3.63688 108.3V105.85C3.63688 105.797 3.62021 105.75 3.58688 105.71C3.55354 105.67 3.50354 105.637 3.43687 105.61C2.93021 105.423 2.52688 105.233 2.22688 105.04C1.92688 104.847 1.71021 104.627 1.57688 104.38C1.45021 104.133 1.38688 103.85 1.38688 103.53C1.38688 103.17 1.47354 102.85 1.64688 102.57C1.82688 102.29 2.07354 102.06 2.38688 101.88C2.70688 101.693 3.08021 101.577 3.50688 101.53C3.54021 101.523 3.56688 101.513 3.58688 101.5C3.61354 101.48 3.62688 101.453 3.62688 101.42V100.93C3.62688 100.903 3.63354 100.883 3.64688 100.87C3.66688 100.85 3.69021 100.84 3.71688 100.84H4.11688C4.16354 100.84 4.19354 100.85 4.20688 100.87C4.22688 100.89 4.23688 100.923 4.23688 100.97V101.45C4.23688 101.497 4.27021 101.523 4.33688 101.53C4.72354 101.583 5.06354 101.683 5.35688 101.83C5.65688 101.977 5.93021 102.17 6.17688 102.41C6.25021 102.463 6.25354 102.523 6.18688 102.59L5.83688 102.95C5.80354 102.983 5.77354 103 5.74688 103C5.72688 102.993 5.69354 102.967 5.64688 102.92C5.50688 102.753 5.32354 102.61 5.09688 102.49C4.87021 102.37 4.61688 102.287 4.33688 102.24C4.30354 102.233 4.27688 102.237 4.25688 102.25C4.24354 102.263 4.23688 102.287 4.23688 102.32V104.83C4.23688 104.897 4.27688 104.943 4.35688 104.97L4.73688 105.1C5.10354 105.24 5.41688 105.41 5.67688 105.61C5.93688 105.803 6.13354 106.03 6.26688 106.29C6.40021 106.543 6.46688 106.833 6.46688 107.16ZM3.62688 102.31C3.62688 102.23 3.59021 102.2 3.51688 102.22C3.11021 102.267 2.78688 102.403 2.54688 102.63C2.30688 102.857 2.18688 103.137 2.18688 103.47C2.18688 103.637 2.22354 103.793 2.29688 103.94C2.37688 104.08 2.50688 104.213 2.68688 104.34C2.86688 104.467 3.11354 104.597 3.42688 104.73C3.48688 104.75 3.53354 104.75 3.56688 104.73C3.60688 104.71 3.62688 104.663 3.62688 104.59V102.31ZM4.24688 108.32C4.24688 108.367 4.27688 108.387 4.33688 108.38C4.74354 108.367 5.06688 108.253 5.30688 108.04C5.54688 107.82 5.66688 107.547 5.66688 107.22C5.66688 106.913 5.56688 106.66 5.36688 106.46C5.16688 106.253 4.84354 106.063 4.39688 105.89C4.35021 105.877 4.31354 105.877 4.28688 105.89C4.26021 105.897 4.24688 105.927 4.24688 105.98V108.32ZM10.7116 101.69C10.7449 101.65 10.7782 101.623 10.8116 101.61C10.8449 101.59 10.8949 101.58 10.9616 101.58H11.6316C11.7116 101.58 11.7516 101.62 11.7516 101.7V106.2C11.7516 106.26 11.7782 106.29 11.8316 106.29H12.7716C12.8649 106.29 12.9116 106.323 12.9116 106.39V106.88C12.9116 106.967 12.8649 107.01 12.7716 107.01H11.8416C11.7816 107.01 11.7516 107.043 11.7516 107.11V108.85C11.7516 108.95 11.6982 109 11.5916 109H10.9116C10.8249 109 10.7816 108.957 10.7816 108.87V107.08C10.7816 107.033 10.7516 107.01 10.6916 107.01H7.45156C7.35156 107.01 7.30156 106.967 7.30156 106.88V106.37C7.30156 106.323 7.3149 106.277 7.34156 106.23C7.36823 106.177 7.40823 106.113 7.46156 106.04L10.7116 101.69ZM10.6716 106.29C10.7316 106.29 10.7616 106.267 10.7616 106.22V102.89C10.7616 102.81 10.7516 102.767 10.7316 102.76C10.7116 102.753 10.6749 102.783 10.6216 102.85L8.18156 106.16C8.1149 106.247 8.13823 106.29 8.25156 106.29H10.6716ZM16.7957 101.48C17.189 101.48 17.5524 101.563 17.8857 101.73C18.2257 101.89 18.519 102.133 18.7657 102.46C19.019 102.787 19.2157 103.19 19.3557 103.67C19.4957 104.143 19.5657 104.69 19.5657 105.31C19.5657 106.137 19.4424 106.83 19.1957 107.39C18.9557 107.95 18.6257 108.373 18.2057 108.66C17.7857 108.947 17.3124 109.09 16.7857 109.09C16.2524 109.09 15.7757 108.947 15.3557 108.66C14.9357 108.373 14.6057 107.95 14.3657 107.39C14.1257 106.83 14.0057 106.14 14.0057 105.32C14.0057 104.7 14.0757 104.153 14.2157 103.68C14.3557 103.2 14.5524 102.797 14.8057 102.47C15.059 102.137 15.3557 101.89 15.6957 101.73C16.0357 101.563 16.4024 101.48 16.7957 101.48ZM16.7957 108.36C17.1624 108.36 17.479 108.257 17.7457 108.05C18.0124 107.843 18.219 107.517 18.3657 107.07C18.5124 106.617 18.5857 106.03 18.5857 105.31C18.5857 104.577 18.509 103.983 18.3557 103.53C18.209 103.077 17.999 102.743 17.7257 102.53C17.459 102.317 17.1457 102.21 16.7857 102.21C16.4257 102.21 16.109 102.317 15.8357 102.53C15.569 102.743 15.359 103.08 15.2057 103.54C15.059 103.993 14.9857 104.583 14.9857 105.31C14.9857 106.03 15.059 106.617 15.2057 107.07C15.359 107.517 15.5724 107.843 15.8457 108.05C16.119 108.257 16.4357 108.36 16.7957 108.36ZM23.6805 101.48C24.0738 101.48 24.4371 101.563 24.7705 101.73C25.1105 101.89 25.4038 102.133 25.6505 102.46C25.9038 102.787 26.1005 103.19 26.2405 103.67C26.3805 104.143 26.4505 104.69 26.4505 105.31C26.4505 106.137 26.3271 106.83 26.0805 107.39C25.8405 107.95 25.5105 108.373 25.0905 108.66C24.6705 108.947 24.1971 109.09 23.6705 109.09C23.1371 109.09 22.6605 108.947 22.2405 108.66C21.8205 108.373 21.4905 107.95 21.2505 107.39C21.0105 106.83 20.8905 106.14 20.8905 105.32C20.8905 104.7 20.9605 104.153 21.1005 103.68C21.2405 103.2 21.4371 102.797 21.6905 102.47C21.9438 102.137 22.2405 101.89 22.5805 101.73C22.9205 101.563 23.2871 101.48 23.6805 101.48ZM23.6805 108.36C24.0471 108.36 24.3638 108.257 24.6305 108.05C24.8971 107.843 25.1038 107.517 25.2505 107.07C25.3971 106.617 25.4705 106.03 25.4705 105.31C25.4705 104.577 25.3938 103.983 25.2405 103.53C25.0938 103.077 24.8838 102.743 24.6105 102.53C24.3438 102.317 24.0305 102.21 23.6705 102.21C23.3105 102.21 22.9938 102.317 22.7205 102.53C22.4538 102.743 22.2438 103.08 22.0905 103.54C21.9438 103.993 21.8705 104.583 21.8705 105.31C21.8705 106.03 21.9438 106.617 22.0905 107.07C22.2438 107.517 22.4571 107.843 22.7305 108.05C23.0038 108.257 23.3205 108.36 23.6805 108.36ZM30.5652 101.48C30.9586 101.48 31.3219 101.563 31.6552 101.73C31.9952 101.89 32.2886 102.133 32.5352 102.46C32.7886 102.787 32.9852 103.19 33.1252 103.67C33.2652 104.143 33.3352 104.69 33.3352 105.31C33.3352 106.137 33.2119 106.83 32.9652 107.39C32.7252 107.95 32.3952 108.373 31.9752 108.66C31.5552 108.947 31.0819 109.09 30.5552 109.09C30.0219 109.09 29.5452 108.947 29.1252 108.66C28.7052 108.373 28.3752 107.95 28.1352 107.39C27.8952 106.83 27.7752 106.14 27.7752 105.32C27.7752 104.7 27.8452 104.153 27.9852 103.68C28.1252 103.2 28.3219 102.797 28.5752 102.47C28.8286 102.137 29.1252 101.89 29.4652 101.73C29.8052 101.563 30.1719 101.48 30.5652 101.48ZM30.5652 108.36C30.9319 108.36 31.2486 108.257 31.5152 108.05C31.7819 107.843 31.9886 107.517 32.1352 107.07C32.2819 106.617 32.3552 106.03 32.3552 105.31C32.3552 104.577 32.2786 103.983 32.1252 103.53C31.9786 103.077 31.7686 102.743 31.4952 102.53C31.2286 102.317 30.9152 102.21 30.5552 102.21C30.1952 102.21 29.8786 102.317 29.6052 102.53C29.3386 102.743 29.1286 103.08 28.9752 103.54C28.8286 103.993 28.7552 104.583 28.7552 105.31C28.7552 106.03 28.8286 106.617 28.9752 107.07C29.1286 107.517 29.3419 107.843 29.6152 108.05C29.8886 108.257 30.2052 108.36 30.5652 108.36Z" fill="#5B5B5B"/>
<path d="M6.41805 87.16C6.41805 87.5133 6.32805 87.8333 6.14805 88.12C5.97471 88.4 5.73138 88.6267 5.41805 88.8C5.10471 88.9667 4.73805 89.06 4.31805 89.08C4.27138 89.08 4.23805 89.0867 4.21805 89.1C4.20471 89.1133 4.19805 89.14 4.19805 89.18V89.74C4.19805 89.8267 4.15138 89.87 4.05805 89.87H3.70805C3.62138 89.87 3.57805 89.8367 3.57805 89.77V89.17C3.57805 89.13 3.57138 89.1033 3.55805 89.09C3.55138 89.0833 3.52805 89.08 3.48805 89.08C2.93471 89.0667 2.47471 88.9667 2.10805 88.78C1.74805 88.5933 1.43138 88.3233 1.15805 87.97C1.07805 87.8833 1.07138 87.81 1.13805 87.75L1.46805 87.44C1.50138 87.4067 1.53805 87.39 1.57805 87.39C1.61805 87.39 1.65138 87.4067 1.67805 87.44C1.90471 87.7267 2.15805 87.9533 2.43805 88.12C2.71805 88.28 3.06805 88.3667 3.48805 88.38C3.55471 88.3867 3.58805 88.36 3.58805 88.3V85.85C3.58805 85.7967 3.57138 85.75 3.53805 85.71C3.50471 85.67 3.45471 85.6367 3.38805 85.61C2.88138 85.4233 2.47805 85.2333 2.17805 85.04C1.87805 84.8467 1.66138 84.6267 1.52805 84.38C1.40138 84.1333 1.33805 83.85 1.33805 83.53C1.33805 83.17 1.42471 82.85 1.59805 82.57C1.77805 82.29 2.02471 82.06 2.33805 81.88C2.65805 81.6933 3.03138 81.5767 3.45805 81.53C3.49138 81.5233 3.51805 81.5133 3.53805 81.5C3.56471 81.48 3.57805 81.4533 3.57805 81.42V80.93C3.57805 80.9033 3.58471 80.8833 3.59805 80.87C3.61805 80.85 3.64138 80.84 3.66805 80.84H4.06805C4.11471 80.84 4.14471 80.85 4.15805 80.87C4.17805 80.89 4.18805 80.9233 4.18805 80.97V81.45C4.18805 81.4967 4.22138 81.5233 4.28805 81.53C4.67471 81.5833 5.01471 81.6833 5.30805 81.83C5.60805 81.9767 5.88138 82.17 6.12805 82.41C6.20138 82.4633 6.20471 82.5233 6.13805 82.59L5.78805 82.95C5.75471 82.9833 5.72471 83 5.69805 83C5.67805 82.9933 5.64471 82.9667 5.59805 82.92C5.45805 82.7533 5.27471 82.61 5.04805 82.49C4.82138 82.37 4.56805 82.2867 4.28805 82.24C4.25471 82.2333 4.22805 82.2367 4.20805 82.25C4.19471 82.2633 4.18805 82.2867 4.18805 82.32V84.83C4.18805 84.8967 4.22805 84.9433 4.30805 84.97L4.68805 85.1C5.05471 85.24 5.36805 85.41 5.62805 85.61C5.88805 85.8033 6.08471 86.03 6.21805 86.29C6.35138 86.5433 6.41805 86.8333 6.41805 87.16ZM3.57805 82.31C3.57805 82.23 3.54138 82.2 3.46805 82.22C3.06138 82.2667 2.73805 82.4033 2.49805 82.63C2.25805 82.8567 2.13805 83.1367 2.13805 83.47C2.13805 83.6367 2.17471 83.7933 2.24805 83.94C2.32805 84.08 2.45805 84.2133 2.63805 84.34C2.81805 84.4667 3.06471 84.5967 3.37805 84.73C3.43805 84.75 3.48471 84.75 3.51805 84.73C3.55805 84.71 3.57805 84.6633 3.57805 84.59V82.31ZM4.19805 88.32C4.19805 88.3667 4.22805 88.3867 4.28805 88.38C4.69471 88.3667 5.01805 88.2533 5.25805 88.04C5.49805 87.82 5.61805 87.5467 5.61805 87.22C5.61805 86.9133 5.51805 86.66 5.31805 86.46C5.11805 86.2533 4.79471 86.0633 4.34805 85.89C4.30138 85.8767 4.26471 85.8767 4.23805 85.89C4.21138 85.8967 4.19805 85.9267 4.19805 85.98V88.32ZM12.2427 81.58C12.3094 81.58 12.3527 81.59 12.3727 81.61C12.3927 81.63 12.3994 81.67 12.3927 81.73L12.3527 82.27C12.3461 82.3167 12.3361 82.3467 12.3227 82.36C12.3161 82.3733 12.2794 82.38 12.2127 82.38H8.81273C8.73273 82.38 8.69273 82.4167 8.69273 82.49L8.51273 84.66C8.50607 84.7067 8.51607 84.7433 8.54273 84.77C8.5694 84.79 8.5994 84.7933 8.63273 84.78C8.8794 84.6533 9.12607 84.5433 9.37273 84.45C9.62607 84.35 9.93273 84.3 10.2927 84.3C10.7327 84.3 11.1427 84.38 11.5227 84.54C11.9027 84.7 12.2061 84.9467 12.4327 85.28C12.6661 85.6133 12.7827 86.0433 12.7827 86.57C12.7827 87.1033 12.6594 87.56 12.4127 87.94C12.1727 88.3133 11.8361 88.6 11.4027 88.8C10.9761 89 10.4861 89.1 9.93273 89.1C9.42607 89.1 8.94607 89.0133 8.49273 88.84C8.04607 88.66 7.66607 88.4 7.35273 88.06C7.32607 88.02 7.3094 87.9867 7.30273 87.96C7.30273 87.9267 7.32607 87.8933 7.37273 87.86L7.80273 87.51C7.85607 87.47 7.91273 87.48 7.97273 87.54C8.15273 87.7067 8.3294 87.8533 8.50273 87.98C8.67607 88.1067 8.86607 88.2067 9.07273 88.28C9.28607 88.3467 9.53273 88.38 9.81273 88.38C10.2461 88.38 10.6127 88.3033 10.9127 88.15C11.2127 87.9967 11.4427 87.7867 11.6027 87.52C11.7627 87.2467 11.8427 86.94 11.8427 86.6C11.8427 86.24 11.7661 85.9467 11.6127 85.72C11.4594 85.4867 11.2527 85.3133 10.9927 85.2C10.7394 85.0867 10.4561 85.03 10.1427 85.03C9.7894 85.03 9.47273 85.0933 9.19273 85.22C8.91273 85.3467 8.65607 85.48 8.42273 85.62C8.3694 85.6467 8.33607 85.6567 8.32273 85.65C8.3094 85.6433 8.28273 85.63 8.24273 85.61L7.75273 85.33C7.69273 85.2967 7.66273 85.2733 7.66273 85.26C7.6694 85.24 7.67607 85.19 7.68273 85.11L7.95273 81.72C7.9594 81.66 7.97273 81.6233 7.99273 81.61C8.0194 81.59 8.0794 81.58 8.17273 81.58H12.2427ZM16.7957 81.48C17.189 81.48 17.5524 81.5633 17.8857 81.73C18.2257 81.89 18.519 82.1333 18.7657 82.46C19.019 82.7867 19.2157 83.19 19.3557 83.67C19.4957 84.1433 19.5657 84.69 19.5657 85.31C19.5657 86.1367 19.4424 86.83 19.1957 87.39C18.9557 87.95 18.6257 88.3733 18.2057 88.66C17.7857 88.9467 17.3124 89.09 16.7857 89.09C16.2524 89.09 15.7757 88.9467 15.3557 88.66C14.9357 88.3733 14.6057 87.95 14.3657 87.39C14.1257 86.83 14.0057 86.14 14.0057 85.32C14.0057 84.7 14.0757 84.1533 14.2157 83.68C14.3557 83.2 14.5524 82.7967 14.8057 82.47C15.059 82.1367 15.3557 81.89 15.6957 81.73C16.0357 81.5633 16.4024 81.48 16.7957 81.48ZM16.7957 88.36C17.1624 88.36 17.479 88.2567 17.7457 88.05C18.0124 87.8433 18.219 87.5167 18.3657 87.07C18.5124 86.6167 18.5857 86.03 18.5857 85.31C18.5857 84.5767 18.509 83.9833 18.3557 83.53C18.209 83.0767 17.999 82.7433 17.7257 82.53C17.459 82.3167 17.1457 82.21 16.7857 82.21C16.4257 82.21 16.109 82.3167 15.8357 82.53C15.569 82.7433 15.359 83.08 15.2057 83.54C15.059 83.9933 14.9857 84.5833 14.9857 85.31C14.9857 86.03 15.059 86.6167 15.2057 87.07C15.359 87.5167 15.5724 87.8433 15.8457 88.05C16.119 88.2567 16.4357 88.36 16.7957 88.36ZM23.6805 81.48C24.0738 81.48 24.4371 81.5633 24.7705 81.73C25.1105 81.89 25.4038 82.1333 25.6505 82.46C25.9038 82.7867 26.1005 83.19 26.2405 83.67C26.3805 84.1433 26.4505 84.69 26.4505 85.31C26.4505 86.1367 26.3271 86.83 26.0805 87.39C25.8405 87.95 25.5105 88.3733 25.0905 88.66C24.6705 88.9467 24.1971 89.09 23.6705 89.09C23.1371 89.09 22.6605 88.9467 22.2405 88.66C21.8205 88.3733 21.4905 87.95 21.2505 87.39C21.0105 86.83 20.8905 86.14 20.8905 85.32C20.8905 84.7 20.9605 84.1533 21.1005 83.68C21.2405 83.2 21.4371 82.7967 21.6905 82.47C21.9438 82.1367 22.2405 81.89 22.5805 81.73C22.9205 81.5633 23.2871 81.48 23.6805 81.48ZM23.6805 88.36C24.0471 88.36 24.3638 88.2567 24.6305 88.05C24.8971 87.8433 25.1038 87.5167 25.2505 87.07C25.3971 86.6167 25.4705 86.03 25.4705 85.31C25.4705 84.5767 25.3938 83.9833 25.2405 83.53C25.0938 83.0767 24.8838 82.7433 24.6105 82.53C24.3438 82.3167 24.0305 82.21 23.6705 82.21C23.3105 82.21 22.9938 82.3167 22.7205 82.53C22.4538 82.7433 22.2438 83.08 22.0905 83.54C21.9438 83.9933 21.8705 84.5833 21.8705 85.31C21.8705 86.03 21.9438 86.6167 22.0905 87.07C22.2438 87.5167 22.4571 87.8433 22.7305 88.05C23.0038 88.2567 23.3205 88.36 23.6805 88.36ZM30.5652 81.48C30.9586 81.48 31.3219 81.5633 31.6552 81.73C31.9952 81.89 32.2886 82.1333 32.5352 82.46C32.7886 82.7867 32.9852 83.19 33.1252 83.67C33.2652 84.1433 33.3352 84.69 33.3352 85.31C33.3352 86.1367 33.2119 86.83 32.9652 87.39C32.7252 87.95 32.3952 88.3733 31.9752 88.66C31.5552 88.9467 31.0819 89.09 30.5552 89.09C30.0219 89.09 29.5452 88.9467 29.1252 88.66C28.7052 88.3733 28.3752 87.95 28.1352 87.39C27.8952 86.83 27.7752 86.14 27.7752 85.32C27.7752 84.7 27.8452 84.1533 27.9852 83.68C28.1252 83.2 28.3219 82.7967 28.5752 82.47C28.8286 82.1367 29.1252 81.89 29.4652 81.73C29.8052 81.5633 30.1719 81.48 30.5652 81.48ZM30.5652 88.36C30.9319 88.36 31.2486 88.2567 31.5152 88.05C31.7819 87.8433 31.9886 87.5167 32.1352 87.07C32.2819 86.6167 32.3552 86.03 32.3552 85.31C32.3552 84.5767 32.2786 83.9833 32.1252 83.53C31.9786 83.0767 31.7686 82.7433 31.4952 82.53C31.2286 82.3167 30.9152 82.21 30.5552 82.21C30.1952 82.21 29.8786 82.3167 29.6052 82.53C29.3386 82.7433 29.1286 83.08 28.9752 83.54C28.8286 83.9933 28.7552 84.5833 28.7552 85.31C28.7552 86.03 28.8286 86.6167 28.9752 87.07C29.1286 87.5167 29.3419 87.8433 29.6152 88.05C29.8886 88.2567 30.2052 88.36 30.5652 88.36Z" fill="#5B5B5B"/>
<path d="M6.34969 67.16C6.34969 67.5133 6.25969 67.8333 6.07969 68.12C5.90635 68.4 5.66302 68.6267 5.34969 68.8C5.03635 68.9667 4.66969 69.06 4.24969 69.08C4.20302 69.08 4.16969 69.0867 4.14969 69.1C4.13635 69.1133 4.12969 69.14 4.12969 69.18V69.74C4.12969 69.8267 4.08302 69.87 3.98969 69.87H3.63969C3.55302 69.87 3.50969 69.8367 3.50969 69.77V69.17C3.50969 69.13 3.50302 69.1033 3.48969 69.09C3.48302 69.0833 3.45969 69.08 3.41969 69.08C2.86635 69.0667 2.40635 68.9667 2.03969 68.78C1.67969 68.5933 1.36302 68.3233 1.08969 67.97C1.00969 67.8833 1.00302 67.81 1.06969 67.75L1.39969 67.44C1.43302 67.4067 1.46969 67.39 1.50969 67.39C1.54969 67.39 1.58302 67.4067 1.60969 67.44C1.83635 67.7267 2.08969 67.9533 2.36969 68.12C2.64969 68.28 2.99969 68.3667 3.41969 68.38C3.48635 68.3867 3.51969 68.36 3.51969 68.3V65.85C3.51969 65.7967 3.50302 65.75 3.46969 65.71C3.43635 65.67 3.38635 65.6367 3.31969 65.61C2.81302 65.4233 2.40969 65.2333 2.10969 65.04C1.80969 64.8467 1.59302 64.6267 1.45969 64.38C1.33302 64.1333 1.26969 63.85 1.26969 63.53C1.26969 63.17 1.35635 62.85 1.52969 62.57C1.70969 62.29 1.95635 62.06 2.26969 61.88C2.58969 61.6933 2.96302 61.5767 3.38969 61.53C3.42302 61.5233 3.44969 61.5133 3.46969 61.5C3.49635 61.48 3.50969 61.4533 3.50969 61.42V60.93C3.50969 60.9033 3.51635 60.8833 3.52969 60.87C3.54969 60.85 3.57302 60.84 3.59969 60.84H3.99969C4.04635 60.84 4.07635 60.85 4.08969 60.87C4.10969 60.89 4.11969 60.9233 4.11969 60.97V61.45C4.11969 61.4967 4.15302 61.5233 4.21969 61.53C4.60635 61.5833 4.94635 61.6833 5.23969 61.83C5.53969 61.9767 5.81302 62.17 6.05969 62.41C6.13302 62.4633 6.13635 62.5233 6.06969 62.59L5.71969 62.95C5.68635 62.9833 5.65635 63 5.62969 63C5.60969 62.9933 5.57635 62.9667 5.52969 62.92C5.38969 62.7533 5.20635 62.61 4.97969 62.49C4.75302 62.37 4.49969 62.2867 4.21969 62.24C4.18635 62.2333 4.15969 62.2367 4.13969 62.25C4.12635 62.2633 4.11969 62.2867 4.11969 62.32V64.83C4.11969 64.8967 4.15969 64.9433 4.23969 64.97L4.61969 65.1C4.98635 65.24 5.29969 65.41 5.55969 65.61C5.81969 65.8033 6.01635 66.03 6.14969 66.29C6.28302 66.5433 6.34969 66.8333 6.34969 67.16ZM3.50969 62.31C3.50969 62.23 3.47302 62.2 3.39969 62.22C2.99302 62.2667 2.66969 62.4033 2.42969 62.63C2.18969 62.8567 2.06969 63.1367 2.06969 63.47C2.06969 63.6367 2.10635 63.7933 2.17969 63.94C2.25969 64.08 2.38969 64.2133 2.56969 64.34C2.74969 64.4667 2.99635 64.5967 3.30969 64.73C3.36969 64.75 3.41635 64.75 3.44969 64.73C3.48969 64.71 3.50969 64.6633 3.50969 64.59V62.31ZM4.12969 68.32C4.12969 68.3667 4.15969 68.3867 4.21969 68.38C4.62635 68.3667 4.94969 68.2533 5.18969 68.04C5.42969 67.82 5.54969 67.5467 5.54969 67.22C5.54969 66.9133 5.44969 66.66 5.24969 66.46C5.04969 66.2533 4.72635 66.0633 4.27969 65.89C4.23302 65.8767 4.19635 65.8767 4.16969 65.89C4.14302 65.8967 4.12969 65.9267 4.12969 65.98V68.32ZM10.4244 61.49C10.6777 61.49 10.9044 61.5167 11.1044 61.57C11.3044 61.6233 11.4844 61.6967 11.6444 61.79C11.8044 61.8833 11.9444 61.9867 12.0644 62.1C12.191 62.2133 12.2944 62.3333 12.3744 62.46C12.3877 62.4867 12.3944 62.5167 12.3944 62.55C12.401 62.5767 12.3844 62.6 12.3444 62.62L11.7744 62.85C11.741 62.87 11.711 62.8733 11.6844 62.86C11.6577 62.84 11.6377 62.8167 11.6244 62.79C11.4777 62.6167 11.311 62.4767 11.1244 62.37C10.9444 62.2633 10.7144 62.21 10.4344 62.21C9.95438 62.21 9.55771 62.3267 9.24438 62.56C8.93771 62.7933 8.71104 63.1133 8.56438 63.52C8.41771 63.92 8.34438 64.3733 8.34438 64.88C8.34438 64.9867 8.35438 65.0567 8.37438 65.09C8.39438 65.1233 8.44438 65.12 8.52438 65.08C8.77771 64.9533 9.05104 64.8367 9.34438 64.73C9.63771 64.6233 9.98104 64.57 10.3744 64.57C10.8877 64.57 11.3244 64.6667 11.6844 64.86C12.051 65.0467 12.3277 65.3033 12.5144 65.63C12.7077 65.9567 12.8044 66.3267 12.8044 66.74C12.8044 67.2067 12.6877 67.62 12.4544 67.98C12.2277 68.3333 11.9177 68.6067 11.5244 68.8C11.1377 68.9933 10.7044 69.09 10.2244 69.09C9.63771 69.09 9.13104 68.9467 8.70438 68.66C8.28438 68.3667 7.96104 67.9467 7.73438 67.4C7.50771 66.8467 7.39437 66.18 7.39437 65.4C7.39437 64.5867 7.51438 63.89 7.75438 63.31C8.00104 62.7233 8.35104 62.2733 8.80438 61.96C9.25771 61.6467 9.79771 61.49 10.4244 61.49ZM10.2644 65.27C10.091 65.27 9.89438 65.2933 9.67437 65.34C9.46104 65.38 9.25771 65.4333 9.06438 65.5C8.87104 65.5667 8.70438 65.6433 8.56438 65.73C8.48438 65.7833 8.43104 65.84 8.40438 65.9C8.37771 65.9533 8.36438 66.04 8.36438 66.16C8.36438 66.4 8.40104 66.65 8.47438 66.91C8.55438 67.1633 8.66771 67.4033 8.81438 67.63C8.96771 67.8567 9.16104 68.04 9.39438 68.18C9.62771 68.32 9.90438 68.39 10.2244 68.39C10.5377 68.39 10.8144 68.32 11.0544 68.18C11.301 68.04 11.4944 67.8467 11.6344 67.6C11.781 67.3533 11.8544 67.08 11.8544 66.78C11.8544 66.5 11.791 66.2467 11.6644 66.02C11.5377 65.7867 11.3544 65.6033 11.1144 65.47C10.8744 65.3367 10.591 65.27 10.2644 65.27ZM16.7957 61.48C17.189 61.48 17.5524 61.5633 17.8857 61.73C18.2257 61.89 18.519 62.1333 18.7657 62.46C19.019 62.7867 19.2157 63.19 19.3557 63.67C19.4957 64.1433 19.5657 64.69 19.5657 65.31C19.5657 66.1367 19.4424 66.83 19.1957 67.39C18.9557 67.95 18.6257 68.3733 18.2057 68.66C17.7857 68.9467 17.3124 69.09 16.7857 69.09C16.2524 69.09 15.7757 68.9467 15.3557 68.66C14.9357 68.3733 14.6057 67.95 14.3657 67.39C14.1257 66.83 14.0057 66.14 14.0057 65.32C14.0057 64.7 14.0757 64.1533 14.2157 63.68C14.3557 63.2 14.5524 62.7967 14.8057 62.47C15.059 62.1367 15.3557 61.89 15.6957 61.73C16.0357 61.5633 16.4024 61.48 16.7957 61.48ZM16.7957 68.36C17.1624 68.36 17.479 68.2567 17.7457 68.05C18.0124 67.8433 18.219 67.5167 18.3657 67.07C18.5124 66.6167 18.5857 66.03 18.5857 65.31C18.5857 64.5767 18.509 63.9833 18.3557 63.53C18.209 63.0767 17.999 62.7433 17.7257 62.53C17.459 62.3167 17.1457 62.21 16.7857 62.21C16.4257 62.21 16.109 62.3167 15.8357 62.53C15.569 62.7433 15.359 63.08 15.2057 63.54C15.059 63.9933 14.9857 64.5833 14.9857 65.31C14.9857 66.03 15.059 66.6167 15.2057 67.07C15.359 67.5167 15.5724 67.8433 15.8457 68.05C16.119 68.2567 16.4357 68.36 16.7957 68.36ZM23.6805 61.48C24.0738 61.48 24.4371 61.5633 24.7705 61.73C25.1105 61.89 25.4038 62.1333 25.6505 62.46C25.9038 62.7867 26.1005 63.19 26.2405 63.67C26.3805 64.1433 26.4505 64.69 26.4505 65.31C26.4505 66.1367 26.3271 66.83 26.0805 67.39C25.8405 67.95 25.5105 68.3733 25.0905 68.66C24.6705 68.9467 24.1971 69.09 23.6705 69.09C23.1371 69.09 22.6605 68.9467 22.2405 68.66C21.8205 68.3733 21.4905 67.95 21.2505 67.39C21.0105 66.83 20.8905 66.14 20.8905 65.32C20.8905 64.7 20.9605 64.1533 21.1005 63.68C21.2405 63.2 21.4371 62.7967 21.6905 62.47C21.9438 62.1367 22.2405 61.89 22.5805 61.73C22.9205 61.5633 23.2871 61.48 23.6805 61.48ZM23.6805 68.36C24.0471 68.36 24.3638 68.2567 24.6305 68.05C24.8971 67.8433 25.1038 67.5167 25.2505 67.07C25.3971 66.6167 25.4705 66.03 25.4705 65.31C25.4705 64.5767 25.3938 63.9833 25.2405 63.53C25.0938 63.0767 24.8838 62.7433 24.6105 62.53C24.3438 62.3167 24.0305 62.21 23.6705 62.21C23.3105 62.21 22.9938 62.3167 22.7205 62.53C22.4538 62.7433 22.2438 63.08 22.0905 63.54C21.9438 63.9933 21.8705 64.5833 21.8705 65.31C21.8705 66.03 21.9438 66.6167 22.0905 67.07C22.2438 67.5167 22.4571 67.8433 22.7305 68.05C23.0038 68.2567 23.3205 68.36 23.6805 68.36ZM30.5652 61.48C30.9586 61.48 31.3219 61.5633 31.6552 61.73C31.9952 61.89 32.2886 62.1333 32.5352 62.46C32.7886 62.7867 32.9852 63.19 33.1252 63.67C33.2652 64.1433 33.3352 64.69 33.3352 65.31C33.3352 66.1367 33.2119 66.83 32.9652 67.39C32.7252 67.95 32.3952 68.3733 31.9752 68.66C31.5552 68.9467 31.0819 69.09 30.5552 69.09C30.0219 69.09 29.5452 68.9467 29.1252 68.66C28.7052 68.3733 28.3752 67.95 28.1352 67.39C27.8952 66.83 27.7752 66.14 27.7752 65.32C27.7752 64.7 27.8452 64.1533 27.9852 63.68C28.1252 63.2 28.3219 62.7967 28.5752 62.47C28.8286 62.1367 29.1252 61.89 29.4652 61.73C29.8052 61.5633 30.1719 61.48 30.5652 61.48ZM30.5652 68.36C30.9319 68.36 31.2486 68.2567 31.5152 68.05C31.7819 67.8433 31.9886 67.5167 32.1352 67.07C32.2819 66.6167 32.3552 66.03 32.3552 65.31C32.3552 64.5767 32.2786 63.9833 32.1252 63.53C31.9786 63.0767 31.7686 62.7433 31.4952 62.53C31.2286 62.3167 30.9152 62.21 30.5552 62.21C30.1952 62.21 29.8786 62.3167 29.6052 62.53C29.3386 62.7433 29.1286 63.08 28.9752 63.54C28.8286 63.9933 28.7552 64.5833 28.7552 65.31C28.7552 66.03 28.8286 66.6167 28.9752 67.07C29.1286 67.5167 29.3419 67.8433 29.6152 68.05C29.8886 68.2567 30.2052 68.36 30.5652 68.36Z" fill="#5B5B5B"/>
<path d="M6.97469 47.16C6.97469 47.5133 6.88469 47.8333 6.70469 48.12C6.53135 48.4 6.28802 48.6267 5.97469 48.8C5.66135 48.9667 5.29469 49.06 4.87469 49.08C4.82802 49.08 4.79469 49.0867 4.77469 49.1C4.76135 49.1133 4.75469 49.14 4.75469 49.18V49.74C4.75469 49.8267 4.70802 49.87 4.61469 49.87H4.26469C4.17802 49.87 4.13469 49.8367 4.13469 49.77V49.17C4.13469 49.13 4.12802 49.1033 4.11469 49.09C4.10802 49.0833 4.08469 49.08 4.04469 49.08C3.49135 49.0667 3.03135 48.9667 2.66469 48.78C2.30469 48.5933 1.98802 48.3233 1.71469 47.97C1.63469 47.8833 1.62802 47.81 1.69469 47.75L2.02469 47.44C2.05802 47.4067 2.09469 47.39 2.13469 47.39C2.17469 47.39 2.20802 47.4067 2.23469 47.44C2.46135 47.7267 2.71469 47.9533 2.99469 48.12C3.27469 48.28 3.62469 48.3667 4.04469 48.38C4.11135 48.3867 4.14469 48.36 4.14469 48.3V45.85C4.14469 45.7967 4.12802 45.75 4.09469 45.71C4.06135 45.67 4.01135 45.6367 3.94469 45.61C3.43802 45.4233 3.03469 45.2333 2.73469 45.04C2.43469 44.8467 2.21802 44.6267 2.08469 44.38C1.95802 44.1333 1.89469 43.85 1.89469 43.53C1.89469 43.17 1.98135 42.85 2.15469 42.57C2.33469 42.29 2.58135 42.06 2.89469 41.88C3.21469 41.6933 3.58802 41.5767 4.01469 41.53C4.04802 41.5233 4.07469 41.5133 4.09469 41.5C4.12135 41.48 4.13469 41.4533 4.13469 41.42V40.93C4.13469 40.9033 4.14135 40.8833 4.15469 40.87C4.17469 40.85 4.19802 40.84 4.22469 40.84H4.62469C4.67135 40.84 4.70135 40.85 4.71469 40.87C4.73469 40.89 4.74469 40.9233 4.74469 40.97V41.45C4.74469 41.4967 4.77802 41.5233 4.84469 41.53C5.23135 41.5833 5.57135 41.6833 5.86469 41.83C6.16469 41.9767 6.43802 42.17 6.68469 42.41C6.75802 42.4633 6.76135 42.5233 6.69469 42.59L6.34469 42.95C6.31135 42.9833 6.28135 43 6.25469 43C6.23469 42.9933 6.20135 42.9667 6.15469 42.92C6.01469 42.7533 5.83135 42.61 5.60469 42.49C5.37802 42.37 5.12469 42.2867 4.84469 42.24C4.81135 42.2333 4.78469 42.2367 4.76469 42.25C4.75135 42.2633 4.74469 42.2867 4.74469 42.32V44.83C4.74469 44.8967 4.78469 44.9433 4.86469 44.97L5.24469 45.1C5.61135 45.24 5.92469 45.41 6.18469 45.61C6.44469 45.8033 6.64135 46.03 6.77469 46.29C6.90802 46.5433 6.97469 46.8333 6.97469 47.16ZM4.13469 42.31C4.13469 42.23 4.09802 42.2 4.02469 42.22C3.61802 42.2667 3.29469 42.4033 3.05469 42.63C2.81469 42.8567 2.69469 43.1367 2.69469 43.47C2.69469 43.6367 2.73135 43.7933 2.80469 43.94C2.88469 44.08 3.01469 44.2133 3.19469 44.34C3.37469 44.4667 3.62135 44.5967 3.93469 44.73C3.99469 44.75 4.04135 44.75 4.07469 44.73C4.11469 44.71 4.13469 44.6633 4.13469 44.59V42.31ZM4.75469 48.32C4.75469 48.3667 4.78469 48.3867 4.84469 48.38C5.25135 48.3667 5.57469 48.2533 5.81469 48.04C6.05469 47.82 6.17469 47.5467 6.17469 47.22C6.17469 46.9133 6.07469 46.66 5.87469 46.46C5.67469 46.2533 5.35135 46.0633 4.90469 45.89C4.85802 45.8767 4.82135 45.8767 4.79469 45.89C4.76802 45.8967 4.75469 45.9267 4.75469 45.98V48.32ZM12.7594 41.58C12.8127 41.58 12.8527 41.5933 12.8794 41.62C12.906 41.6467 12.916 41.6733 12.9094 41.7L12.8994 42.06C12.8994 42.1133 12.886 42.1733 12.8594 42.24C12.8327 42.3 12.7994 42.36 12.7594 42.42C12.4927 42.82 12.2327 43.25 11.9794 43.71C11.7327 44.17 11.5027 44.6433 11.2894 45.13C11.076 45.6167 10.8827 46.09 10.7094 46.55C10.5427 47.0033 10.4027 47.4267 10.2894 47.82C10.176 48.2067 10.0994 48.5367 10.0594 48.81C10.046 48.9367 9.99604 49 9.90938 49H9.11938C9.01271 49 8.97271 48.9433 8.99938 48.83C9.09271 48.4567 9.21604 48.0367 9.36938 47.57C9.52938 47.0967 9.72271 46.59 9.94938 46.05C10.1827 45.5033 10.456 44.9333 10.7694 44.34C11.0827 43.7467 11.436 43.14 11.8294 42.52C11.856 42.48 11.866 42.4467 11.8594 42.42C11.8527 42.3933 11.8194 42.38 11.7594 42.38H7.88938C7.80938 42.38 7.76938 42.34 7.76938 42.26L7.83938 41.68C7.84604 41.6133 7.89604 41.58 7.98938 41.58H12.7594ZM16.7957 41.48C17.189 41.48 17.5524 41.5633 17.8857 41.73C18.2257 41.89 18.519 42.1333 18.7657 42.46C19.019 42.7867 19.2157 43.19 19.3557 43.67C19.4957 44.1433 19.5657 44.69 19.5657 45.31C19.5657 46.1367 19.4424 46.83 19.1957 47.39C18.9557 47.95 18.6257 48.3733 18.2057 48.66C17.7857 48.9467 17.3124 49.09 16.7857 49.09C16.2524 49.09 15.7757 48.9467 15.3557 48.66C14.9357 48.3733 14.6057 47.95 14.3657 47.39C14.1257 46.83 14.0057 46.14 14.0057 45.32C14.0057 44.7 14.0757 44.1533 14.2157 43.68C14.3557 43.2 14.5524 42.7967 14.8057 42.47C15.059 42.1367 15.3557 41.89 15.6957 41.73C16.0357 41.5633 16.4024 41.48 16.7957 41.48ZM16.7957 48.36C17.1624 48.36 17.479 48.2567 17.7457 48.05C18.0124 47.8433 18.219 47.5167 18.3657 47.07C18.5124 46.6167 18.5857 46.03 18.5857 45.31C18.5857 44.5767 18.509 43.9833 18.3557 43.53C18.209 43.0767 17.999 42.7433 17.7257 42.53C17.459 42.3167 17.1457 42.21 16.7857 42.21C16.4257 42.21 16.109 42.3167 15.8357 42.53C15.569 42.7433 15.359 43.08 15.2057 43.54C15.059 43.9933 14.9857 44.5833 14.9857 45.31C14.9857 46.03 15.059 46.6167 15.2057 47.07C15.359 47.5167 15.5724 47.8433 15.8457 48.05C16.119 48.2567 16.4357 48.36 16.7957 48.36ZM23.6805 41.48C24.0738 41.48 24.4371 41.5633 24.7705 41.73C25.1105 41.89 25.4038 42.1333 25.6505 42.46C25.9038 42.7867 26.1005 43.19 26.2405 43.67C26.3805 44.1433 26.4505 44.69 26.4505 45.31C26.4505 46.1367 26.3271 46.83 26.0805 47.39C25.8405 47.95 25.5105 48.3733 25.0905 48.66C24.6705 48.9467 24.1971 49.09 23.6705 49.09C23.1371 49.09 22.6605 48.9467 22.2405 48.66C21.8205 48.3733 21.4905 47.95 21.2505 47.39C21.0105 46.83 20.8905 46.14 20.8905 45.32C20.8905 44.7 20.9605 44.1533 21.1005 43.68C21.2405 43.2 21.4371 42.7967 21.6905 42.47C21.9438 42.1367 22.2405 41.89 22.5805 41.73C22.9205 41.5633 23.2871 41.48 23.6805 41.48ZM23.6805 48.36C24.0471 48.36 24.3638 48.2567 24.6305 48.05C24.8971 47.8433 25.1038 47.5167 25.2505 47.07C25.3971 46.6167 25.4705 46.03 25.4705 45.31C25.4705 44.5767 25.3938 43.9833 25.2405 43.53C25.0938 43.0767 24.8838 42.7433 24.6105 42.53C24.3438 42.3167 24.0305 42.21 23.6705 42.21C23.3105 42.21 22.9938 42.3167 22.7205 42.53C22.4538 42.7433 22.2438 43.08 22.0905 43.54C21.9438 43.9933 21.8705 44.5833 21.8705 45.31C21.8705 46.03 21.9438 46.6167 22.0905 47.07C22.2438 47.5167 22.4571 47.8433 22.7305 48.05C23.0038 48.2567 23.3205 48.36 23.6805 48.36ZM30.5652 41.48C30.9586 41.48 31.3219 41.5633 31.6552 41.73C31.9952 41.89 32.2886 42.1333 32.5352 42.46C32.7886 42.7867 32.9852 43.19 33.1252 43.67C33.2652 44.1433 33.3352 44.69 33.3352 45.31C33.3352 46.1367 33.2119 46.83 32.9652 47.39C32.7252 47.95 32.3952 48.3733 31.9752 48.66C31.5552 48.9467 31.0819 49.09 30.5552 49.09C30.0219 49.09 29.5452 48.9467 29.1252 48.66C28.7052 48.3733 28.3752 47.95 28.1352 47.39C27.8952 46.83 27.7752 46.14 27.7752 45.32C27.7752 44.7 27.8452 44.1533 27.9852 43.68C28.1252 43.2 28.3219 42.7967 28.5752 42.47C28.8286 42.1367 29.1252 41.89 29.4652 41.73C29.8052 41.5633 30.1719 41.48 30.5652 41.48ZM30.5652 48.36C30.9319 48.36 31.2486 48.2567 31.5152 48.05C31.7819 47.8433 31.9886 47.5167 32.1352 47.07C32.2819 46.6167 32.3552 46.03 32.3552 45.31C32.3552 44.5767 32.2786 43.9833 32.1252 43.53C31.9786 43.0767 31.7686 42.7433 31.4952 42.53C31.2286 42.3167 30.9152 42.21 30.5552 42.21C30.1952 42.21 29.8786 42.3167 29.6052 42.53C29.3386 42.7433 29.1286 43.08 28.9752 43.54C28.8286 43.9933 28.7552 44.5833 28.7552 45.31C28.7552 46.03 28.8286 46.6167 28.9752 47.07C29.1286 47.5167 29.3419 47.8433 29.6152 48.05C29.8886 48.2567 30.2052 48.36 30.5652 48.36Z" fill="#5B5B5B"/>
<path d="M6.28133 27.16C6.28133 27.5133 6.19133 27.8333 6.01133 28.12C5.83799 28.4 5.59466 28.6267 5.28133 28.8C4.96799 28.9667 4.60133 29.06 4.18133 29.08C4.13466 29.08 4.10133 29.0867 4.08133 29.1C4.06799 29.1133 4.06133 29.14 4.06133 29.18V29.74C4.06133 29.8267 4.01466 29.87 3.92133 29.87H3.57133C3.48466 29.87 3.44133 29.8367 3.44133 29.77V29.17C3.44133 29.13 3.43466 29.1033 3.42133 29.09C3.41466 29.0833 3.39133 29.08 3.35133 29.08C2.79799 29.0667 2.33799 28.9667 1.97133 28.78C1.61133 28.5933 1.29466 28.3233 1.02133 27.97C0.941328 27.8833 0.934661 27.81 1.00133 27.75L1.33133 27.44C1.36466 27.4067 1.40133 27.39 1.44133 27.39C1.48133 27.39 1.51466 27.4067 1.54133 27.44C1.76799 27.7267 2.02133 27.9533 2.30133 28.12C2.58133 28.28 2.93133 28.3667 3.35133 28.38C3.41799 28.3867 3.45133 28.36 3.45133 28.3V25.85C3.45133 25.7967 3.43466 25.75 3.40133 25.71C3.36799 25.67 3.31799 25.6367 3.25133 25.61C2.74466 25.4233 2.34133 25.2333 2.04133 25.04C1.74133 24.8467 1.52466 24.6267 1.39133 24.38C1.26466 24.1333 1.20133 23.85 1.20133 23.53C1.20133 23.17 1.28799 22.85 1.46133 22.57C1.64133 22.29 1.88799 22.06 2.20133 21.88C2.52133 21.6933 2.89466 21.5767 3.32133 21.53C3.35466 21.5233 3.38133 21.5133 3.40133 21.5C3.42799 21.48 3.44133 21.4533 3.44133 21.42V20.93C3.44133 20.9033 3.448 20.8833 3.46133 20.87C3.48133 20.85 3.50466 20.84 3.53133 20.84H3.93133C3.97799 20.84 4.00799 20.85 4.02133 20.87C4.04133 20.89 4.05133 20.9233 4.05133 20.97V21.45C4.05133 21.4967 4.08466 21.5233 4.15133 21.53C4.538 21.5833 4.878 21.6833 5.17133 21.83C5.47133 21.9767 5.74466 22.17 5.99133 22.41C6.06466 22.4633 6.068 22.5233 6.00133 22.59L5.65133 22.95C5.61799 22.9833 5.58799 23 5.56133 23C5.54133 22.9933 5.50799 22.9667 5.46133 22.92C5.32133 22.7533 5.13799 22.61 4.91133 22.49C4.68466 22.37 4.43133 22.2867 4.15133 22.24C4.11799 22.2333 4.09133 22.2367 4.07133 22.25C4.05799 22.2633 4.05133 22.2867 4.05133 22.32V24.83C4.05133 24.8967 4.09133 24.9433 4.17133 24.97L4.55133 25.1C4.918 25.24 5.23133 25.41 5.49133 25.61C5.75133 25.8033 5.948 26.03 6.08133 26.29C6.21466 26.5433 6.28133 26.8333 6.28133 27.16ZM3.44133 22.31C3.44133 22.23 3.40466 22.2 3.33133 22.22C2.92466 22.2667 2.60133 22.4033 2.36133 22.63C2.12133 22.8567 2.00133 23.1367 2.00133 23.47C2.00133 23.6367 2.03799 23.7933 2.11133 23.94C2.19133 24.08 2.32133 24.2133 2.50133 24.34C2.68133 24.4667 2.92799 24.5967 3.24133 24.73C3.30133 24.75 3.34799 24.75 3.38133 24.73C3.42133 24.71 3.44133 24.6633 3.44133 24.59V22.31ZM4.06133 28.32C4.06133 28.3667 4.09133 28.3867 4.15133 28.38C4.55799 28.3667 4.88133 28.2533 5.12133 28.04C5.36133 27.82 5.48133 27.5467 5.48133 27.22C5.48133 26.9133 5.38133 26.66 5.18133 26.46C4.98133 26.2533 4.65799 26.0633 4.21133 25.89C4.16466 25.8767 4.12799 25.8767 4.10133 25.89C4.07466 25.8967 4.06133 25.9267 4.06133 25.98V28.32ZM9.99602 21.48C10.4827 21.48 10.9093 21.5667 11.276 21.74C11.6427 21.9067 11.9293 22.1433 12.136 22.45C12.3427 22.7567 12.446 23.1133 12.446 23.52C12.446 23.8333 12.366 24.1133 12.206 24.36C12.046 24.6067 11.7893 24.8533 11.436 25.1C11.336 25.1667 11.3327 25.22 11.426 25.26C11.7327 25.38 11.9827 25.5267 12.176 25.7C12.376 25.8733 12.526 26.0733 12.626 26.3C12.726 26.52 12.776 26.7633 12.776 27.03C12.776 27.45 12.656 27.8167 12.416 28.13C12.1827 28.4433 11.856 28.6833 11.436 28.85C11.016 29.0167 10.526 29.1 9.96602 29.1C9.41935 29.1 8.94268 29.0233 8.53602 28.87C8.12935 28.7167 7.81602 28.4967 7.59602 28.21C7.38268 27.9167 7.27602 27.5667 7.27602 27.16C7.27602 26.8067 7.36268 26.49 7.53602 26.21C7.71602 25.9233 8.00935 25.6533 8.41602 25.4C8.49602 25.3533 8.53602 25.3167 8.53602 25.29C8.54268 25.2567 8.50602 25.22 8.42602 25.18C8.23935 25.0733 8.07268 24.9467 7.92602 24.8C7.78602 24.6533 7.67602 24.4833 7.59602 24.29C7.51602 24.0967 7.47602 23.8767 7.47602 23.63C7.47602 23.2233 7.57935 22.86 7.78602 22.54C7.99935 22.2133 8.29602 21.9567 8.67602 21.77C9.05602 21.5767 9.49602 21.48 9.99602 21.48ZM10.006 22.18C9.70602 22.18 9.43268 22.24 9.18602 22.36C8.93935 22.48 8.74268 22.6433 8.59602 22.85C8.45602 23.05 8.38602 23.2833 8.38602 23.55C8.38602 24.1567 8.72935 24.5367 9.41602 24.69L10.446 24.93C10.5393 24.9567 10.6493 24.9333 10.776 24.86C10.9093 24.7867 11.0393 24.68 11.166 24.54C11.2927 24.4 11.396 24.24 11.476 24.06C11.556 23.88 11.596 23.6967 11.596 23.51C11.596 23.1167 11.4527 22.7967 11.166 22.55C10.8793 22.3033 10.4927 22.18 10.006 22.18ZM10.016 28.4C10.5693 28.4 11.0093 28.28 11.336 28.04C11.6627 27.8 11.826 27.4767 11.826 27.07C11.826 26.7633 11.7427 26.5133 11.576 26.32C11.4093 26.1267 11.1393 25.9867 10.766 25.9L9.46602 25.58C9.36602 25.5533 9.24268 25.5733 9.09602 25.64C8.94935 25.7 8.80268 25.8 8.65602 25.94C8.50935 26.0733 8.38268 26.2367 8.27602 26.43C8.17602 26.6167 8.12602 26.8233 8.12602 27.05C8.12602 27.4767 8.28602 27.81 8.60602 28.05C8.93268 28.2833 9.40268 28.4 10.016 28.4ZM16.7957 21.48C17.189 21.48 17.5524 21.5633 17.8857 21.73C18.2257 21.89 18.519 22.1333 18.7657 22.46C19.019 22.7867 19.2157 23.19 19.3557 23.67C19.4957 24.1433 19.5657 24.69 19.5657 25.31C19.5657 26.1367 19.4424 26.83 19.1957 27.39C18.9557 27.95 18.6257 28.3733 18.2057 28.66C17.7857 28.9467 17.3124 29.09 16.7857 29.09C16.2524 29.09 15.7757 28.9467 15.3557 28.66C14.9357 28.3733 14.6057 27.95 14.3657 27.39C14.1257 26.83 14.0057 26.14 14.0057 25.32C14.0057 24.7 14.0757 24.1533 14.2157 23.68C14.3557 23.2 14.5524 22.7967 14.8057 22.47C15.059 22.1367 15.3557 21.89 15.6957 21.73C16.0357 21.5633 16.4024 21.48 16.7957 21.48ZM16.7957 28.36C17.1624 28.36 17.479 28.2567 17.7457 28.05C18.0124 27.8433 18.219 27.5167 18.3657 27.07C18.5124 26.6167 18.5857 26.03 18.5857 25.31C18.5857 24.5767 18.509 23.9833 18.3557 23.53C18.209 23.0767 17.999 22.7433 17.7257 22.53C17.459 22.3167 17.1457 22.21 16.7857 22.21C16.4257 22.21 16.109 22.3167 15.8357 22.53C15.569 22.7433 15.359 23.08 15.2057 23.54C15.059 23.9933 14.9857 24.5833 14.9857 25.31C14.9857 26.03 15.059 26.6167 15.2057 27.07C15.359 27.5167 15.5724 27.8433 15.8457 28.05C16.119 28.2567 16.4357 28.36 16.7957 28.36ZM23.6805 21.48C24.0738 21.48 24.4371 21.5633 24.7705 21.73C25.1105 21.89 25.4038 22.1333 25.6505 22.46C25.9038 22.7867 26.1005 23.19 26.2405 23.67C26.3805 24.1433 26.4505 24.69 26.4505 25.31C26.4505 26.1367 26.3271 26.83 26.0805 27.39C25.8405 27.95 25.5105 28.3733 25.0905 28.66C24.6705 28.9467 24.1971 29.09 23.6705 29.09C23.1371 29.09 22.6605 28.9467 22.2405 28.66C21.8205 28.3733 21.4905 27.95 21.2505 27.39C21.0105 26.83 20.8905 26.14 20.8905 25.32C20.8905 24.7 20.9605 24.1533 21.1005 23.68C21.2405 23.2 21.4371 22.7967 21.6905 22.47C21.9438 22.1367 22.2405 21.89 22.5805 21.73C22.9205 21.5633 23.2871 21.48 23.6805 21.48ZM23.6805 28.36C24.0471 28.36 24.3638 28.2567 24.6305 28.05C24.8971 27.8433 25.1038 27.5167 25.2505 27.07C25.3971 26.6167 25.4705 26.03 25.4705 25.31C25.4705 24.5767 25.3938 23.9833 25.2405 23.53C25.0938 23.0767 24.8838 22.7433 24.6105 22.53C24.3438 22.3167 24.0305 22.21 23.6705 22.21C23.3105 22.21 22.9938 22.3167 22.7205 22.53C22.4538 22.7433 22.2438 23.08 22.0905 23.54C21.9438 23.9933 21.8705 24.5833 21.8705 25.31C21.8705 26.03 21.9438 26.6167 22.0905 27.07C22.2438 27.5167 22.4571 27.8433 22.7305 28.05C23.0038 28.2567 23.3205 28.36 23.6805 28.36ZM30.5652 21.48C30.9586 21.48 31.3219 21.5633 31.6552 21.73C31.9952 21.89 32.2886 22.1333 32.5352 22.46C32.7886 22.7867 32.9852 23.19 33.1252 23.67C33.2652 24.1433 33.3352 24.69 33.3352 25.31C33.3352 26.1367 33.2119 26.83 32.9652 27.39C32.7252 27.95 32.3952 28.3733 31.9752 28.66C31.5552 28.9467 31.0819 29.09 30.5552 29.09C30.0219 29.09 29.5452 28.9467 29.1252 28.66C28.7052 28.3733 28.3752 27.95 28.1352 27.39C27.8952 26.83 27.7752 26.14 27.7752 25.32C27.7752 24.7 27.8452 24.1533 27.9852 23.68C28.1252 23.2 28.3219 22.7967 28.5752 22.47C28.8286 22.1367 29.1252 21.89 29.4652 21.73C29.8052 21.5633 30.1719 21.48 30.5652 21.48ZM30.5652 28.36C30.9319 28.36 31.2486 28.2567 31.5152 28.05C31.7819 27.8433 31.9886 27.5167 32.1352 27.07C32.2819 26.6167 32.3552 26.03 32.3552 25.31C32.3552 24.5767 32.2786 23.9833 32.1252 23.53C31.9786 23.0767 31.7686 22.7433 31.4952 22.53C31.2286 22.3167 30.9152 22.21 30.5552 22.21C30.1952 22.21 29.8786 22.3167 29.6052 22.53C29.3386 22.7433 29.1286 23.08 28.9752 23.54C28.8286 23.9933 28.7552 24.5833 28.7552 25.31C28.7552 26.03 28.8286 26.6167 28.9752 27.07C29.1286 27.5167 29.3419 27.8433 29.6152 28.05C29.8886 28.2567 30.2052 28.36 30.5652 28.36Z" fill="#5B5B5B"/>
<path d="M6.37898 7.16C6.37898 7.51333 6.28898 7.83333 6.10898 8.12C5.93565 8.4 5.69232 8.62667 5.37898 8.8C5.06565 8.96667 4.69898 9.06 4.27898 9.08C4.23232 9.08 4.19898 9.08667 4.17898 9.1C4.16565 9.11333 4.15898 9.14 4.15898 9.18V9.74C4.15898 9.82667 4.11232 9.87 4.01898 9.87H3.66898C3.58232 9.87 3.53898 9.83667 3.53898 9.77V9.17C3.53898 9.13 3.53232 9.10333 3.51898 9.09C3.51232 9.08333 3.48898 9.08 3.44898 9.08C2.89565 9.06667 2.43565 8.96667 2.06898 8.78C1.70898 8.59333 1.39232 8.32333 1.11898 7.97C1.03898 7.88333 1.03232 7.81 1.09898 7.75L1.42898 7.44C1.46232 7.40667 1.49898 7.39 1.53898 7.39C1.57898 7.39 1.61232 7.40667 1.63898 7.44C1.86565 7.72667 2.11898 7.95333 2.39898 8.12C2.67898 8.28 3.02898 8.36667 3.44898 8.38C3.51565 8.38667 3.54898 8.36 3.54898 8.3V5.85C3.54898 5.79667 3.53232 5.75 3.49898 5.71C3.46565 5.67 3.41565 5.63667 3.34898 5.61C2.84232 5.42333 2.43898 5.23333 2.13898 5.04C1.83898 4.84667 1.62232 4.62667 1.48898 4.38C1.36232 4.13333 1.29898 3.85 1.29898 3.53C1.29898 3.17 1.38565 2.85 1.55898 2.57C1.73898 2.29 1.98565 2.06 2.29898 1.88C2.61898 1.69333 2.99232 1.57667 3.41898 1.53C3.45232 1.52333 3.47898 1.51333 3.49898 1.5C3.52565 1.48 3.53898 1.45333 3.53898 1.42V0.93C3.53898 0.903333 3.54565 0.883333 3.55898 0.87C3.57898 0.85 3.60232 0.84 3.62898 0.84H4.02898C4.07565 0.84 4.10565 0.85 4.11898 0.87C4.13898 0.89 4.14898 0.923333 4.14898 0.97V1.45C4.14898 1.49667 4.18232 1.52333 4.24898 1.53C4.63565 1.58333 4.97565 1.68333 5.26898 1.83C5.56898 1.97667 5.84232 2.17 6.08898 2.41C6.16232 2.46333 6.16565 2.52333 6.09898 2.59L5.74898 2.95C5.71565 2.98333 5.68565 3 5.65898 3C5.63898 2.99333 5.60565 2.96667 5.55898 2.92C5.41898 2.75333 5.23565 2.61 5.00898 2.49C4.78232 2.37 4.52898 2.28667 4.24898 2.24C4.21565 2.23333 4.18898 2.23667 4.16898 2.25C4.15565 2.26333 4.14898 2.28667 4.14898 2.32V4.83C4.14898 4.89667 4.18898 4.94333 4.26898 4.97L4.64898 5.1C5.01565 5.24 5.32898 5.41 5.58898 5.61C5.84898 5.80333 6.04565 6.03 6.17898 6.29C6.31232 6.54333 6.37898 6.83333 6.37898 7.16ZM3.53898 2.31C3.53898 2.23 3.50232 2.2 3.42898 2.22C3.02232 2.26667 2.69898 2.40333 2.45898 2.63C2.21898 2.85667 2.09898 3.13667 2.09898 3.47C2.09898 3.63667 2.13565 3.79333 2.20898 3.94C2.28898 4.08 2.41898 4.21333 2.59898 4.34C2.77898 4.46667 3.02565 4.59667 3.33898 4.73C3.39898 4.75 3.44565 4.75 3.47898 4.73C3.51898 4.71 3.53898 4.66333 3.53898 4.59V2.31ZM4.15898 8.32C4.15898 8.36667 4.18898 8.38667 4.24898 8.38C4.65565 8.36667 4.97898 8.25333 5.21898 8.04C5.45898 7.82 5.57898 7.54667 5.57898 7.22C5.57898 6.91333 5.47898 6.66 5.27898 6.46C5.07898 6.25333 4.75565 6.06333 4.30898 5.89C4.26232 5.87667 4.22565 5.87667 4.19898 5.89C4.17232 5.89667 4.15898 5.92667 4.15898 5.98V8.32ZM9.68367 9.09C9.43034 9.09 9.19701 9.06333 8.98367 9.01C8.77701 8.95667 8.59034 8.88333 8.42367 8.79C8.25701 8.69667 8.11034 8.59333 7.98367 8.48C7.86367 8.36 7.76034 8.24 7.67367 8.12C7.66034 8.09333 7.65034 8.06667 7.64367 8.04C7.64367 8.00667 7.66367 7.98 7.70367 7.96L8.27367 7.73C8.30701 7.71 8.33367 7.71 8.35367 7.73C8.38034 7.74333 8.40367 7.76333 8.42367 7.79C8.56367 7.96333 8.73367 8.10333 8.93367 8.21C9.13367 8.31667 9.38367 8.37 9.68367 8.37C10.157 8.37 10.5437 8.25333 10.8437 8.02C11.1437 7.78667 11.3637 7.47 11.5037 7.07C11.6503 6.66333 11.7237 6.20667 11.7237 5.7C11.7237 5.58667 11.7137 5.51667 11.6937 5.49C11.6803 5.45667 11.6337 5.46 11.5537 5.5C11.3003 5.62667 11.0303 5.74333 10.7437 5.85C10.4637 5.95667 10.1237 6.01 9.72367 6.01C9.22367 6.01 8.79034 5.91667 8.42367 5.73C8.06367 5.53667 7.78701 5.27667 7.59367 4.95C7.40701 4.62333 7.31367 4.25333 7.31367 3.84C7.31367 3.36667 7.42701 2.95333 7.65367 2.6C7.88034 2.24667 8.19034 1.97333 8.58367 1.78C8.97701 1.58667 9.41367 1.49 9.89367 1.49C10.467 1.49 10.9603 1.63667 11.3737 1.93C11.7937 2.21667 12.117 2.63667 12.3437 3.19C12.5703 3.73667 12.6837 4.4 12.6837 5.18C12.6837 5.99333 12.5603 6.69333 12.3137 7.28C12.0737 7.86 11.7303 8.30667 11.2837 8.62C10.8437 8.93333 10.3103 9.09 9.68367 9.09ZM9.83367 5.31C10.027 5.31 10.227 5.29 10.4337 5.25C10.6403 5.20333 10.8403 5.14 11.0337 5.06C11.227 4.98 11.3903 4.89333 11.5237 4.8C11.6037 4.74667 11.657 4.69333 11.6837 4.64C11.7103 4.58 11.7237 4.49 11.7237 4.37C11.7237 4.13667 11.687 3.89333 11.6137 3.64C11.5403 3.38667 11.427 3.15 11.2737 2.93C11.127 2.71 10.937 2.53333 10.7037 2.4C10.477 2.26 10.207 2.19 9.89367 2.19C9.58701 2.19 9.31034 2.26 9.06367 2.4C8.81701 2.54 8.62034 2.73333 8.47367 2.98C8.33367 3.22 8.26367 3.49333 8.26367 3.8C8.26367 4.08 8.32701 4.33667 8.45367 4.57C8.58701 4.79667 8.77034 4.97667 9.00367 5.11C9.23701 5.24333 9.51367 5.31 9.83367 5.31ZM16.7957 1.48C17.189 1.48 17.5524 1.56333 17.8857 1.73C18.2257 1.89 18.519 2.13333 18.7657 2.46C19.019 2.78667 19.2157 3.19 19.3557 3.67C19.4957 4.14333 19.5657 4.69 19.5657 5.31C19.5657 6.13667 19.4424 6.83 19.1957 7.39C18.9557 7.95 18.6257 8.37333 18.2057 8.66C17.7857 8.94667 17.3124 9.09 16.7857 9.09C16.2524 9.09 15.7757 8.94667 15.3557 8.66C14.9357 8.37333 14.6057 7.95 14.3657 7.39C14.1257 6.83 14.0057 6.14 14.0057 5.32C14.0057 4.7 14.0757 4.15333 14.2157 3.68C14.3557 3.2 14.5524 2.79667 14.8057 2.47C15.059 2.13667 15.3557 1.89 15.6957 1.73C16.0357 1.56333 16.4024 1.48 16.7957 1.48ZM16.7957 8.36C17.1624 8.36 17.479 8.25667 17.7457 8.05C18.0124 7.84333 18.219 7.51667 18.3657 7.07C18.5124 6.61667 18.5857 6.03 18.5857 5.31C18.5857 4.57667 18.509 3.98333 18.3557 3.53C18.209 3.07667 17.999 2.74333 17.7257 2.53C17.459 2.31667 17.1457 2.21 16.7857 2.21C16.4257 2.21 16.109 2.31667 15.8357 2.53C15.569 2.74333 15.359 3.08 15.2057 3.54C15.059 3.99333 14.9857 4.58333 14.9857 5.31C14.9857 6.03 15.059 6.61667 15.2057 7.07C15.359 7.51667 15.5724 7.84333 15.8457 8.05C16.119 8.25667 16.4357 8.36 16.7957 8.36ZM23.6805 1.48C24.0738 1.48 24.4371 1.56333 24.7705 1.73C25.1105 1.89 25.4038 2.13333 25.6505 2.46C25.9038 2.78667 26.1005 3.19 26.2405 3.67C26.3805 4.14333 26.4505 4.69 26.4505 5.31C26.4505 6.13667 26.3271 6.83 26.0805 7.39C25.8405 7.95 25.5105 8.37333 25.0905 8.66C24.6705 8.94667 24.1971 9.09 23.6705 9.09C23.1371 9.09 22.6605 8.94667 22.2405 8.66C21.8205 8.37333 21.4905 7.95 21.2505 7.39C21.0105 6.83 20.8905 6.14 20.8905 5.32C20.8905 4.7 20.9605 4.15333 21.1005 3.68C21.2405 3.2 21.4371 2.79667 21.6905 2.47C21.9438 2.13667 22.2405 1.89 22.5805 1.73C22.9205 1.56333 23.2871 1.48 23.6805 1.48ZM23.6805 8.36C24.0471 8.36 24.3638 8.25667 24.6305 8.05C24.8971 7.84333 25.1038 7.51667 25.2505 7.07C25.3971 6.61667 25.4705 6.03 25.4705 5.31C25.4705 4.57667 25.3938 3.98333 25.2405 3.53C25.0938 3.07667 24.8838 2.74333 24.6105 2.53C24.3438 2.31667 24.0305 2.21 23.6705 2.21C23.3105 2.21 22.9938 2.31667 22.7205 2.53C22.4538 2.74333 22.2438 3.08 22.0905 3.54C21.9438 3.99333 21.8705 4.58333 21.8705 5.31C21.8705 6.03 21.9438 6.61667 22.0905 7.07C22.2438 7.51667 22.4571 7.84333 22.7305 8.05C23.0038 8.25667 23.3205 8.36 23.6805 8.36ZM30.5652 1.48C30.9586 1.48 31.3219 1.56333 31.6552 1.73C31.9952 1.89 32.2886 2.13333 32.5352 2.46C32.7886 2.78667 32.9852 3.19 33.1252 3.67C33.2652 4.14333 33.3352 4.69 33.3352 5.31C33.3352 6.13667 33.2119 6.83 32.9652 7.39C32.7252 7.95 32.3952 8.37333 31.9752 8.66C31.5552 8.94667 31.0819 9.09 30.5552 9.09C30.0219 9.09 29.5452 8.94667 29.1252 8.66C28.7052 8.37333 28.3752 7.95 28.1352 7.39C27.8952 6.83 27.7752 6.14 27.7752 5.32C27.7752 4.7 27.8452 4.15333 27.9852 3.68C28.1252 3.2 28.3219 2.79667 28.5752 2.47C28.8286 2.13667 29.1252 1.89 29.4652 1.73C29.8052 1.56333 30.1719 1.48 30.5652 1.48ZM30.5652 8.36C30.9319 8.36 31.2486 8.25667 31.5152 8.05C31.7819 7.84333 31.9886 7.51667 32.1352 7.07C32.2819 6.61667 32.3552 6.03 32.3552 5.31C32.3552 4.57667 32.2786 3.98333 32.1252 3.53C31.9786 3.07667 31.7686 2.74333 31.4952 2.53C31.2286 2.31667 30.9152 2.21 30.5552 2.21C30.1952 2.21 29.8786 2.31667 29.6052 2.53C29.3386 2.74333 29.1286 3.08 28.9752 3.54C28.8286 3.99333 28.7552 4.58333 28.7552 5.31C28.7552 6.03 28.8286 6.61667 28.9752 7.07C29.1286 7.51667 29.3419 7.84333 29.6152 8.05C29.8886 8.25667 30.2052 8.36 30.5652 8.36Z" fill="#5B5B5B"/>
<path d="M6.55477 127.16C6.55477 127.513 6.46477 127.833 6.28477 128.12C6.11143 128.4 5.8681 128.627 5.55477 128.8C5.24143 128.967 4.87477 129.06 4.45477 129.08C4.4081 129.08 4.37477 129.087 4.35477 129.1C4.34143 129.113 4.33477 129.14 4.33477 129.18V129.74C4.33477 129.827 4.2881 129.87 4.19477 129.87H3.84477C3.7581 129.87 3.71477 129.837 3.71477 129.77V129.17C3.71477 129.13 3.7081 129.103 3.69477 129.09C3.6881 129.083 3.66477 129.08 3.62477 129.08C3.07143 129.067 2.61143 128.967 2.24477 128.78C1.88477 128.593 1.5681 128.323 1.29477 127.97C1.21477 127.883 1.2081 127.81 1.27477 127.75L1.60477 127.44C1.6381 127.407 1.67477 127.39 1.71477 127.39C1.75477 127.39 1.7881 127.407 1.81477 127.44C2.04143 127.727 2.29477 127.953 2.57477 128.12C2.85477 128.28 3.20477 128.367 3.62477 128.38C3.69143 128.387 3.72477 128.36 3.72477 128.3V125.85C3.72477 125.797 3.7081 125.75 3.67477 125.71C3.64143 125.67 3.59143 125.637 3.52477 125.61C3.0181 125.423 2.61477 125.233 2.31477 125.04C2.01477 124.847 1.7981 124.627 1.66477 124.38C1.5381 124.133 1.47477 123.85 1.47477 123.53C1.47477 123.17 1.56143 122.85 1.73477 122.57C1.91477 122.29 2.16143 122.06 2.47477 121.88C2.79477 121.693 3.1681 121.577 3.59477 121.53C3.6281 121.523 3.65477 121.513 3.67477 121.5C3.70143 121.48 3.71477 121.453 3.71477 121.42V120.93C3.71477 120.903 3.72143 120.883 3.73477 120.87C3.75477 120.85 3.7781 120.84 3.80477 120.84H4.20477C4.25143 120.84 4.28143 120.85 4.29477 120.87C4.31477 120.89 4.32477 120.923 4.32477 120.97V121.45C4.32477 121.497 4.3581 121.523 4.42477 121.53C4.81143 121.583 5.15143 121.683 5.44477 121.83C5.74477 121.977 6.0181 122.17 6.26477 122.41C6.3381 122.463 6.34143 122.523 6.27477 122.59L5.92477 122.95C5.89143 122.983 5.86143 123 5.83477 123C5.81477 122.993 5.78143 122.967 5.73477 122.92C5.59477 122.753 5.41143 122.61 5.18477 122.49C4.9581 122.37 4.70477 122.287 4.42477 122.24C4.39143 122.233 4.36477 122.237 4.34477 122.25C4.33143 122.263 4.32477 122.287 4.32477 122.32V124.83C4.32477 124.897 4.36477 124.943 4.44477 124.97L4.82477 125.1C5.19143 125.24 5.50477 125.41 5.76477 125.61C6.02477 125.803 6.22143 126.03 6.35477 126.29C6.4881 126.543 6.55477 126.833 6.55477 127.16ZM3.71477 122.31C3.71477 122.23 3.6781 122.2 3.60477 122.22C3.1981 122.267 2.87477 122.403 2.63477 122.63C2.39477 122.857 2.27477 123.137 2.27477 123.47C2.27477 123.637 2.31143 123.793 2.38477 123.94C2.46477 124.08 2.59477 124.213 2.77477 124.34C2.95477 124.467 3.20143 124.597 3.51477 124.73C3.57477 124.75 3.62143 124.75 3.65477 124.73C3.69477 124.71 3.71477 124.663 3.71477 124.59V122.31ZM4.33477 128.32C4.33477 128.367 4.36477 128.387 4.42477 128.38C4.83143 128.367 5.15477 128.253 5.39477 128.04C5.63477 127.82 5.75477 127.547 5.75477 127.22C5.75477 126.913 5.65477 126.66 5.45477 126.46C5.25477 126.253 4.93143 126.063 4.48477 125.89C4.4381 125.877 4.40143 125.877 4.37477 125.89C4.3481 125.897 4.33477 125.927 4.33477 125.98V128.32ZM7.70945 122.62C7.66279 122.573 7.66279 122.523 7.70945 122.47C7.91612 122.243 8.13945 122.057 8.37945 121.91C8.62612 121.763 8.88612 121.657 9.15945 121.59C9.43279 121.517 9.71945 121.48 10.0195 121.48C10.5395 121.48 10.9828 121.563 11.3495 121.73C11.7228 121.89 12.0095 122.113 12.2095 122.4C12.4161 122.68 12.5195 123 12.5195 123.36C12.5195 123.72 12.4061 124.047 12.1795 124.34C11.9595 124.627 11.6495 124.84 11.2495 124.98C11.1761 125.007 11.1395 125.03 11.1395 125.05C11.1395 125.07 11.1761 125.093 11.2495 125.12C11.5228 125.193 11.7728 125.317 11.9995 125.49C12.2328 125.657 12.4161 125.863 12.5495 126.11C12.6828 126.357 12.7495 126.637 12.7495 126.95C12.7495 127.363 12.6428 127.733 12.4295 128.06C12.2161 128.387 11.8961 128.643 11.4695 128.83C11.0495 129.01 10.5228 129.1 9.88945 129.1C9.55612 129.1 9.23945 129.063 8.93945 128.99C8.63945 128.91 8.35945 128.79 8.09945 128.63C7.84612 128.47 7.60945 128.273 7.38945 128.04C7.36279 128.007 7.35279 127.977 7.35945 127.95C7.36612 127.923 7.38612 127.897 7.41945 127.87L7.84945 127.53C7.89612 127.497 7.92945 127.483 7.94945 127.49C7.96945 127.497 7.98945 127.51 8.00945 127.53C8.20945 127.737 8.40945 127.9 8.60945 128.02C8.80945 128.14 9.01945 128.23 9.23945 128.29C9.45945 128.343 9.69945 128.37 9.95945 128.37C10.5461 128.37 10.9995 128.24 11.3195 127.98C11.6395 127.72 11.7995 127.387 11.7995 126.98C11.7995 126.66 11.7095 126.39 11.5295 126.17C11.3495 125.95 11.1161 125.783 10.8295 125.67C10.5428 125.557 10.2395 125.5 9.91945 125.5L9.02945 125.49C8.94945 125.49 8.90945 125.457 8.90945 125.39V124.87C8.90945 124.81 8.94945 124.777 9.02945 124.77L9.74945 124.76C10.0961 124.76 10.4061 124.7 10.6795 124.58C10.9595 124.46 11.1795 124.3 11.3395 124.1C11.4995 123.893 11.5795 123.66 11.5795 123.4C11.5795 123.173 11.5128 122.97 11.3795 122.79C11.2461 122.61 11.0628 122.467 10.8295 122.36C10.5961 122.253 10.3295 122.2 10.0295 122.2C9.68279 122.2 9.36279 122.267 9.06945 122.4C8.77612 122.533 8.49945 122.723 8.23945 122.97C8.21279 123.003 8.18612 123.02 8.15945 123.02C8.13279 123.02 8.09945 123.003 8.05945 122.97L7.70945 122.62ZM16.7957 121.48C17.189 121.48 17.5524 121.563 17.8857 121.73C18.2257 121.89 18.519 122.133 18.7657 122.46C19.019 122.787 19.2157 123.19 19.3557 123.67C19.4957 124.143 19.5657 124.69 19.5657 125.31C19.5657 126.137 19.4424 126.83 19.1957 127.39C18.9557 127.95 18.6257 128.373 18.2057 128.66C17.7857 128.947 17.3124 129.09 16.7857 129.09C16.2524 129.09 15.7757 128.947 15.3557 128.66C14.9357 128.373 14.6057 127.95 14.3657 127.39C14.1257 126.83 14.0057 126.14 14.0057 125.32C14.0057 124.7 14.0757 124.153 14.2157 123.68C14.3557 123.2 14.5524 122.797 14.8057 122.47C15.059 122.137 15.3557 121.89 15.6957 121.73C16.0357 121.563 16.4024 121.48 16.7957 121.48ZM16.7957 128.36C17.1624 128.36 17.479 128.257 17.7457 128.05C18.0124 127.843 18.219 127.517 18.3657 127.07C18.5124 126.617 18.5857 126.03 18.5857 125.31C18.5857 124.577 18.509 123.983 18.3557 123.53C18.209 123.077 17.999 122.743 17.7257 122.53C17.459 122.317 17.1457 122.21 16.7857 122.21C16.4257 122.21 16.109 122.317 15.8357 122.53C15.569 122.743 15.359 123.08 15.2057 123.54C15.059 123.993 14.9857 124.583 14.9857 125.31C14.9857 126.03 15.059 126.617 15.2057 127.07C15.359 127.517 15.5724 127.843 15.8457 128.05C16.119 128.257 16.4357 128.36 16.7957 128.36ZM23.6805 121.48C24.0738 121.48 24.4371 121.563 24.7705 121.73C25.1105 121.89 25.4038 122.133 25.6505 122.46C25.9038 122.787 26.1005 123.19 26.2405 123.67C26.3805 124.143 26.4505 124.69 26.4505 125.31C26.4505 126.137 26.3271 126.83 26.0805 127.39C25.8405 127.95 25.5105 128.373 25.0905 128.66C24.6705 128.947 24.1971 129.09 23.6705 129.09C23.1371 129.09 22.6605 128.947 22.2405 128.66C21.8205 128.373 21.4905 127.95 21.2505 127.39C21.0105 126.83 20.8905 126.14 20.8905 125.32C20.8905 124.7 20.9605 124.153 21.1005 123.68C21.2405 123.2 21.4371 122.797 21.6905 122.47C21.9438 122.137 22.2405 121.89 22.5805 121.73C22.9205 121.563 23.2871 121.48 23.6805 121.48ZM23.6805 128.36C24.0471 128.36 24.3638 128.257 24.6305 128.05C24.8971 127.843 25.1038 127.517 25.2505 127.07C25.3971 126.617 25.4705 126.03 25.4705 125.31C25.4705 124.577 25.3938 123.983 25.2405 123.53C25.0938 123.077 24.8838 122.743 24.6105 122.53C24.3438 122.317 24.0305 122.21 23.6705 122.21C23.3105 122.21 22.9938 122.317 22.7205 122.53C22.4538 122.743 22.2438 123.08 22.0905 123.54C21.9438 123.993 21.8705 124.583 21.8705 125.31C21.8705 126.03 21.9438 126.617 22.0905 127.07C22.2438 127.517 22.4571 127.843 22.7305 128.05C23.0038 128.257 23.3205 128.36 23.6805 128.36ZM30.5652 121.48C30.9586 121.48 31.3219 121.563 31.6552 121.73C31.9952 121.89 32.2886 122.133 32.5352 122.46C32.7886 122.787 32.9852 123.19 33.1252 123.67C33.2652 124.143 33.3352 124.69 33.3352 125.31C33.3352 126.137 33.2119 126.83 32.9652 127.39C32.7252 127.95 32.3952 128.373 31.9752 128.66C31.5552 128.947 31.0819 129.09 30.5552 129.09C30.0219 129.09 29.5452 128.947 29.1252 128.66C28.7052 128.373 28.3752 127.95 28.1352 127.39C27.8952 126.83 27.7752 126.14 27.7752 125.32C27.7752 124.7 27.8452 124.153 27.9852 123.68C28.1252 123.2 28.3219 122.797 28.5752 122.47C28.8286 122.137 29.1252 121.89 29.4652 121.73C29.8052 121.563 30.1719 121.48 30.5652 121.48ZM30.5652 128.36C30.9319 128.36 31.2486 128.257 31.5152 128.05C31.7819 127.843 31.9886 127.517 32.1352 127.07C32.2819 126.617 32.3552 126.03 32.3552 125.31C32.3552 124.577 32.2786 123.983 32.1252 123.53C31.9786 123.077 31.7686 122.743 31.4952 122.53C31.2286 122.317 30.9152 122.21 30.5552 122.21C30.1952 122.21 29.8786 122.317 29.6052 122.53C29.3386 122.743 29.1286 123.08 28.9752 123.54C28.8286 123.993 28.7552 124.583 28.7552 125.31C28.7552 126.03 28.8286 126.617 28.9752 127.07C29.1286 127.517 29.3419 127.843 29.6152 128.05C29.8886 128.257 30.2052 128.36 30.5652 128.36Z" fill="#5B5B5B"/>
<path d="M6.97469 147.16C6.97469 147.513 6.88469 147.833 6.70469 148.12C6.53135 148.4 6.28802 148.627 5.97469 148.8C5.66135 148.967 5.29469 149.06 4.87469 149.08C4.82802 149.08 4.79469 149.087 4.77469 149.1C4.76135 149.113 4.75469 149.14 4.75469 149.18V149.74C4.75469 149.827 4.70802 149.87 4.61469 149.87H4.26469C4.17802 149.87 4.13469 149.837 4.13469 149.77V149.17C4.13469 149.13 4.12802 149.103 4.11469 149.09C4.10802 149.083 4.08469 149.08 4.04469 149.08C3.49135 149.067 3.03135 148.967 2.66469 148.78C2.30469 148.593 1.98802 148.323 1.71469 147.97C1.63469 147.883 1.62802 147.81 1.69469 147.75L2.02469 147.44C2.05802 147.407 2.09469 147.39 2.13469 147.39C2.17469 147.39 2.20802 147.407 2.23469 147.44C2.46135 147.727 2.71469 147.953 2.99469 148.12C3.27469 148.28 3.62469 148.367 4.04469 148.38C4.11135 148.387 4.14469 148.36 4.14469 148.3V145.85C4.14469 145.797 4.12802 145.75 4.09469 145.71C4.06135 145.67 4.01135 145.637 3.94469 145.61C3.43802 145.423 3.03469 145.233 2.73469 145.04C2.43469 144.847 2.21802 144.627 2.08469 144.38C1.95802 144.133 1.89469 143.85 1.89469 143.53C1.89469 143.17 1.98135 142.85 2.15469 142.57C2.33469 142.29 2.58135 142.06 2.89469 141.88C3.21469 141.693 3.58802 141.577 4.01469 141.53C4.04802 141.523 4.07469 141.513 4.09469 141.5C4.12135 141.48 4.13469 141.453 4.13469 141.42V140.93C4.13469 140.903 4.14135 140.883 4.15469 140.87C4.17469 140.85 4.19802 140.84 4.22469 140.84H4.62469C4.67135 140.84 4.70135 140.85 4.71469 140.87C4.73469 140.89 4.74469 140.923 4.74469 140.97V141.45C4.74469 141.497 4.77802 141.523 4.84469 141.53C5.23135 141.583 5.57135 141.683 5.86469 141.83C6.16469 141.977 6.43802 142.17 6.68469 142.41C6.75802 142.463 6.76135 142.523 6.69469 142.59L6.34469 142.95C6.31135 142.983 6.28135 143 6.25469 143C6.23469 142.993 6.20135 142.967 6.15469 142.92C6.01469 142.753 5.83135 142.61 5.60469 142.49C5.37802 142.37 5.12469 142.287 4.84469 142.24C4.81135 142.233 4.78469 142.237 4.76469 142.25C4.75135 142.263 4.74469 142.287 4.74469 142.32V144.83C4.74469 144.897 4.78469 144.943 4.86469 144.97L5.24469 145.1C5.61135 145.24 5.92469 145.41 6.18469 145.61C6.44469 145.803 6.64135 146.03 6.77469 146.29C6.90802 146.543 6.97469 146.833 6.97469 147.16ZM4.13469 142.31C4.13469 142.23 4.09802 142.2 4.02469 142.22C3.61802 142.267 3.29469 142.403 3.05469 142.63C2.81469 142.857 2.69469 143.137 2.69469 143.47C2.69469 143.637 2.73135 143.793 2.80469 143.94C2.88469 144.08 3.01469 144.213 3.19469 144.34C3.37469 144.467 3.62135 144.597 3.93469 144.73C3.99469 144.75 4.04135 144.75 4.07469 144.73C4.11469 144.71 4.13469 144.663 4.13469 144.59V142.31ZM4.75469 148.32C4.75469 148.367 4.78469 148.387 4.84469 148.38C5.25135 148.367 5.57469 148.253 5.81469 148.04C6.05469 147.82 6.17469 147.547 6.17469 147.22C6.17469 146.913 6.07469 146.66 5.87469 146.46C5.67469 146.253 5.35135 146.063 4.90469 145.89C4.85802 145.877 4.82135 145.877 4.79469 145.89C4.76802 145.897 4.75469 145.927 4.75469 145.98V148.32ZM10.2494 145.89C10.5294 145.623 10.766 145.387 10.9594 145.18C11.1527 144.967 11.306 144.77 11.4194 144.59C11.5394 144.403 11.626 144.227 11.6794 144.06C11.7394 143.887 11.7694 143.71 11.7694 143.53C11.7694 143.243 11.696 143.003 11.5494 142.81C11.4027 142.617 11.216 142.473 10.9894 142.38C10.7694 142.28 10.536 142.23 10.2894 142.23C10.096 142.23 9.89604 142.263 9.68938 142.33C9.48271 142.39 9.28271 142.493 9.08938 142.64C8.90271 142.787 8.73271 142.98 8.57938 143.22C8.56604 143.247 8.53938 143.263 8.49938 143.27C8.46604 143.277 8.42604 143.267 8.37938 143.24L7.93938 142.98C7.89271 142.947 7.86604 142.913 7.85938 142.88C7.85938 142.84 7.87271 142.8 7.89938 142.76C8.20604 142.313 8.57604 141.99 9.00938 141.79C9.44938 141.583 9.90271 141.48 10.3694 141.48C10.7894 141.48 11.176 141.557 11.5294 141.71C11.8827 141.863 12.166 142.093 12.3794 142.4C12.5927 142.707 12.6994 143.093 12.6994 143.56C12.6994 143.853 12.646 144.13 12.5394 144.39C12.4394 144.65 12.2694 144.92 12.0294 145.2C11.796 145.48 11.4827 145.807 11.0894 146.18L9.07938 148.07C9.03938 148.097 9.02271 148.123 9.02938 148.15C9.04271 148.177 9.07938 148.19 9.13938 148.19H12.6494C12.736 148.19 12.7794 148.227 12.7794 148.3V148.88C12.7794 148.92 12.7694 148.95 12.7494 148.97C12.736 148.99 12.7027 149 12.6494 149H8.00938C7.94938 149 7.90604 148.99 7.87938 148.97C7.85938 148.95 7.84938 148.907 7.84938 148.84V148.43C7.84938 148.383 7.85271 148.343 7.85938 148.31C7.87271 148.27 7.89938 148.227 7.93938 148.18C7.97938 148.133 8.03938 148.077 8.11938 148.01L10.2494 145.89ZM16.7957 141.48C17.189 141.48 17.5524 141.563 17.8857 141.73C18.2257 141.89 18.519 142.133 18.7657 142.46C19.019 142.787 19.2157 143.19 19.3557 143.67C19.4957 144.143 19.5657 144.69 19.5657 145.31C19.5657 146.137 19.4424 146.83 19.1957 147.39C18.9557 147.95 18.6257 148.373 18.2057 148.66C17.7857 148.947 17.3124 149.09 16.7857 149.09C16.2524 149.09 15.7757 148.947 15.3557 148.66C14.9357 148.373 14.6057 147.95 14.3657 147.39C14.1257 146.83 14.0057 146.14 14.0057 145.32C14.0057 144.7 14.0757 144.153 14.2157 143.68C14.3557 143.2 14.5524 142.797 14.8057 142.47C15.059 142.137 15.3557 141.89 15.6957 141.73C16.0357 141.563 16.4024 141.48 16.7957 141.48ZM16.7957 148.36C17.1624 148.36 17.479 148.257 17.7457 148.05C18.0124 147.843 18.219 147.517 18.3657 147.07C18.5124 146.617 18.5857 146.03 18.5857 145.31C18.5857 144.577 18.509 143.983 18.3557 143.53C18.209 143.077 17.999 142.743 17.7257 142.53C17.459 142.317 17.1457 142.21 16.7857 142.21C16.4257 142.21 16.109 142.317 15.8357 142.53C15.569 142.743 15.359 143.08 15.2057 143.54C15.059 143.993 14.9857 144.583 14.9857 145.31C14.9857 146.03 15.059 146.617 15.2057 147.07C15.359 147.517 15.5724 147.843 15.8457 148.05C16.119 148.257 16.4357 148.36 16.7957 148.36ZM23.6805 141.48C24.0738 141.48 24.4371 141.563 24.7705 141.73C25.1105 141.89 25.4038 142.133 25.6505 142.46C25.9038 142.787 26.1005 143.19 26.2405 143.67C26.3805 144.143 26.4505 144.69 26.4505 145.31C26.4505 146.137 26.3271 146.83 26.0805 147.39C25.8405 147.95 25.5105 148.373 25.0905 148.66C24.6705 148.947 24.1971 149.09 23.6705 149.09C23.1371 149.09 22.6605 148.947 22.2405 148.66C21.8205 148.373 21.4905 147.95 21.2505 147.39C21.0105 146.83 20.8905 146.14 20.8905 145.32C20.8905 144.7 20.9605 144.153 21.1005 143.68C21.2405 143.2 21.4371 142.797 21.6905 142.47C21.9438 142.137 22.2405 141.89 22.5805 141.73C22.9205 141.563 23.2871 141.48 23.6805 141.48ZM23.6805 148.36C24.0471 148.36 24.3638 148.257 24.6305 148.05C24.8971 147.843 25.1038 147.517 25.2505 147.07C25.3971 146.617 25.4705 146.03 25.4705 145.31C25.4705 144.577 25.3938 143.983 25.2405 143.53C25.0938 143.077 24.8838 142.743 24.6105 142.53C24.3438 142.317 24.0305 142.21 23.6705 142.21C23.3105 142.21 22.9938 142.317 22.7205 142.53C22.4538 142.743 22.2438 143.08 22.0905 143.54C21.9438 143.993 21.8705 144.583 21.8705 145.31C21.8705 146.03 21.9438 146.617 22.0905 147.07C22.2438 147.517 22.4571 147.843 22.7305 148.05C23.0038 148.257 23.3205 148.36 23.6805 148.36ZM30.5652 141.48C30.9586 141.48 31.3219 141.563 31.6552 141.73C31.9952 141.89 32.2886 142.133 32.5352 142.46C32.7886 142.787 32.9852 143.19 33.1252 143.67C33.2652 144.143 33.3352 144.69 33.3352 145.31C33.3352 146.137 33.2119 146.83 32.9652 147.39C32.7252 147.95 32.3952 148.373 31.9752 148.66C31.5552 148.947 31.0819 149.09 30.5552 149.09C30.0219 149.09 29.5452 148.947 29.1252 148.66C28.7052 148.373 28.3752 147.95 28.1352 147.39C27.8952 146.83 27.7752 146.14 27.7752 145.32C27.7752 144.7 27.8452 144.153 27.9852 143.68C28.1252 143.2 28.3219 142.797 28.5752 142.47C28.8286 142.137 29.1252 141.89 29.4652 141.73C29.8052 141.563 30.1719 141.48 30.5652 141.48ZM30.5652 148.36C30.9319 148.36 31.2486 148.257 31.5152 148.05C31.7819 147.843 31.9886 147.517 32.1352 147.07C32.2819 146.617 32.3552 146.03 32.3552 145.31C32.3552 144.577 32.2786 143.983 32.1252 143.53C31.9786 143.077 31.7686 142.743 31.4952 142.53C31.2286 142.317 30.9152 142.21 30.5552 142.21C30.1952 142.21 29.8786 142.317 29.6052 142.53C29.3386 142.743 29.1286 143.08 28.9752 143.54C28.8286 143.993 28.7552 144.583 28.7552 145.31C28.7552 146.03 28.8286 146.617 28.9752 147.07C29.1286 147.517 29.3419 147.843 29.6152 148.05C29.8886 148.257 30.2052 148.36 30.5652 148.36Z" fill="#5B5B5B"/>
<path d="M8.31258 167.16C8.31258 167.513 8.22258 167.833 8.04258 168.12C7.86924 168.4 7.62591 168.627 7.31258 168.8C6.99924 168.967 6.63258 169.06 6.21258 169.08C6.16591 169.08 6.13258 169.087 6.11258 169.1C6.09924 169.113 6.09258 169.14 6.09258 169.18V169.74C6.09258 169.827 6.04591 169.87 5.95258 169.87H5.60258C5.51591 169.87 5.47258 169.837 5.47258 169.77V169.17C5.47258 169.13 5.46591 169.103 5.45258 169.09C5.44591 169.083 5.42258 169.08 5.38258 169.08C4.82924 169.067 4.36924 168.967 4.00258 168.78C3.64258 168.593 3.32591 168.323 3.05258 167.97C2.97258 167.883 2.96591 167.81 3.03258 167.75L3.36258 167.44C3.39591 167.407 3.43258 167.39 3.47258 167.39C3.51258 167.39 3.54591 167.407 3.57258 167.44C3.79924 167.727 4.05258 167.953 4.33258 168.12C4.61258 168.28 4.96258 168.367 5.38258 168.38C5.44924 168.387 5.48258 168.36 5.48258 168.3V165.85C5.48258 165.797 5.46591 165.75 5.43258 165.71C5.39924 165.67 5.34924 165.637 5.28258 165.61C4.77591 165.423 4.37258 165.233 4.07258 165.04C3.77258 164.847 3.55591 164.627 3.42258 164.38C3.29591 164.133 3.23258 163.85 3.23258 163.53C3.23258 163.17 3.31924 162.85 3.49258 162.57C3.67258 162.29 3.91924 162.06 4.23258 161.88C4.55258 161.693 4.92591 161.577 5.35258 161.53C5.38591 161.523 5.41258 161.513 5.43258 161.5C5.45924 161.48 5.47258 161.453 5.47258 161.42V160.93C5.47258 160.903 5.47925 160.883 5.49258 160.87C5.51258 160.85 5.53591 160.84 5.56258 160.84H5.96258C6.00924 160.84 6.03924 160.85 6.05258 160.87C6.07258 160.89 6.08258 160.923 6.08258 160.97V161.45C6.08258 161.497 6.11591 161.523 6.18258 161.53C6.56925 161.583 6.90925 161.683 7.20258 161.83C7.50258 161.977 7.77591 162.17 8.02258 162.41C8.09591 162.463 8.09925 162.523 8.03258 162.59L7.68258 162.95C7.64924 162.983 7.61924 163 7.59258 163C7.57258 162.993 7.53924 162.967 7.49258 162.92C7.35258 162.753 7.16924 162.61 6.94258 162.49C6.71591 162.37 6.46258 162.287 6.18258 162.24C6.14924 162.233 6.12258 162.237 6.10258 162.25C6.08924 162.263 6.08258 162.287 6.08258 162.32V164.83C6.08258 164.897 6.12258 164.943 6.20258 164.97L6.58258 165.1C6.94925 165.24 7.26258 165.41 7.52258 165.61C7.78258 165.803 7.97925 166.03 8.11258 166.29C8.24591 166.543 8.31258 166.833 8.31258 167.16ZM5.47258 162.31C5.47258 162.23 5.43591 162.2 5.36258 162.22C4.95591 162.267 4.63258 162.403 4.39258 162.63C4.15258 162.857 4.03258 163.137 4.03258 163.47C4.03258 163.637 4.06924 163.793 4.14258 163.94C4.22258 164.08 4.35258 164.213 4.53258 164.34C4.71258 164.467 4.95924 164.597 5.27258 164.73C5.33258 164.75 5.37924 164.75 5.41258 164.73C5.45258 164.71 5.47258 164.663 5.47258 164.59V162.31ZM6.09258 168.32C6.09258 168.367 6.12258 168.387 6.18258 168.38C6.58924 168.367 6.91258 168.253 7.15258 168.04C7.39258 167.82 7.51258 167.547 7.51258 167.22C7.51258 166.913 7.41258 166.66 7.21258 166.46C7.01258 166.253 6.68924 166.063 6.24258 165.89C6.19591 165.877 6.15924 165.877 6.13258 165.89C6.10591 165.897 6.09258 165.927 6.09258 165.98V168.32ZM12.8173 168.24C12.8906 168.24 12.9273 168.273 12.9273 168.34V168.9C12.9273 168.92 12.9173 168.943 12.8973 168.97C12.8839 168.99 12.8573 169 12.8173 169H9.30727C9.23393 169 9.19727 168.967 9.19727 168.9V168.34C9.19727 168.273 9.23393 168.24 9.30727 168.24H10.5673C10.6206 168.24 10.6473 168.223 10.6473 168.19V162.69C10.6473 162.623 10.6173 162.597 10.5573 162.61L9.31727 163.07C9.2306 163.09 9.18727 163.05 9.18727 162.95V162.55C9.18727 162.503 9.19393 162.473 9.20727 162.46C9.2206 162.44 9.24727 162.42 9.28727 162.4L10.7673 161.66C10.8339 161.627 10.8873 161.607 10.9273 161.6C10.9673 161.587 11.0139 161.58 11.0673 161.58H11.4973C11.5706 161.58 11.6073 161.62 11.6073 161.7V168.17C11.6073 168.217 11.6273 168.24 11.6673 168.24H12.8173ZM16.7957 161.48C17.189 161.48 17.5524 161.563 17.8857 161.73C18.2257 161.89 18.519 162.133 18.7657 162.46C19.019 162.787 19.2157 163.19 19.3557 163.67C19.4957 164.143 19.5657 164.69 19.5657 165.31C19.5657 166.137 19.4424 166.83 19.1957 167.39C18.9557 167.95 18.6257 168.373 18.2057 168.66C17.7857 168.947 17.3124 169.09 16.7857 169.09C16.2524 169.09 15.7757 168.947 15.3557 168.66C14.9357 168.373 14.6057 167.95 14.3657 167.39C14.1257 166.83 14.0057 166.14 14.0057 165.32C14.0057 164.7 14.0757 164.153 14.2157 163.68C14.3557 163.2 14.5524 162.797 14.8057 162.47C15.059 162.137 15.3557 161.89 15.6957 161.73C16.0357 161.563 16.4024 161.48 16.7957 161.48ZM16.7957 168.36C17.1624 168.36 17.479 168.257 17.7457 168.05C18.0124 167.843 18.219 167.517 18.3657 167.07C18.5124 166.617 18.5857 166.03 18.5857 165.31C18.5857 164.577 18.509 163.983 18.3557 163.53C18.209 163.077 17.999 162.743 17.7257 162.53C17.459 162.317 17.1457 162.21 16.7857 162.21C16.4257 162.21 16.109 162.317 15.8357 162.53C15.569 162.743 15.359 163.08 15.2057 163.54C15.059 163.993 14.9857 164.583 14.9857 165.31C14.9857 166.03 15.059 166.617 15.2057 167.07C15.359 167.517 15.5724 167.843 15.8457 168.05C16.119 168.257 16.4357 168.36 16.7957 168.36ZM23.6805 161.48C24.0738 161.48 24.4371 161.563 24.7705 161.73C25.1105 161.89 25.4038 162.133 25.6505 162.46C25.9038 162.787 26.1005 163.19 26.2405 163.67C26.3805 164.143 26.4505 164.69 26.4505 165.31C26.4505 166.137 26.3271 166.83 26.0805 167.39C25.8405 167.95 25.5105 168.373 25.0905 168.66C24.6705 168.947 24.1971 169.09 23.6705 169.09C23.1371 169.09 22.6605 168.947 22.2405 168.66C21.8205 168.373 21.4905 167.95 21.2505 167.39C21.0105 166.83 20.8905 166.14 20.8905 165.32C20.8905 164.7 20.9605 164.153 21.1005 163.68C21.2405 163.2 21.4371 162.797 21.6905 162.47C21.9438 162.137 22.2405 161.89 22.5805 161.73C22.9205 161.563 23.2871 161.48 23.6805 161.48ZM23.6805 168.36C24.0471 168.36 24.3638 168.257 24.6305 168.05C24.8971 167.843 25.1038 167.517 25.2505 167.07C25.3971 166.617 25.4705 166.03 25.4705 165.31C25.4705 164.577 25.3938 163.983 25.2405 163.53C25.0938 163.077 24.8838 162.743 24.6105 162.53C24.3438 162.317 24.0305 162.21 23.6705 162.21C23.3105 162.21 22.9938 162.317 22.7205 162.53C22.4538 162.743 22.2438 163.08 22.0905 163.54C21.9438 163.993 21.8705 164.583 21.8705 165.31C21.8705 166.03 21.9438 166.617 22.0905 167.07C22.2438 167.517 22.4571 167.843 22.7305 168.05C23.0038 168.257 23.3205 168.36 23.6805 168.36ZM30.5652 161.48C30.9586 161.48 31.3219 161.563 31.6552 161.73C31.9952 161.89 32.2886 162.133 32.5352 162.46C32.7886 162.787 32.9852 163.19 33.1252 163.67C33.2652 164.143 33.3352 164.69 33.3352 165.31C33.3352 166.137 33.2119 166.83 32.9652 167.39C32.7252 167.95 32.3952 168.373 31.9752 168.66C31.5552 168.947 31.0819 169.09 30.5552 169.09C30.0219 169.09 29.5452 168.947 29.1252 168.66C28.7052 168.373 28.3752 167.95 28.1352 167.39C27.8952 166.83 27.7752 166.14 27.7752 165.32C27.7752 164.7 27.8452 164.153 27.9852 163.68C28.1252 163.2 28.3219 162.797 28.5752 162.47C28.8286 162.137 29.1252 161.89 29.4652 161.73C29.8052 161.563 30.1719 161.48 30.5652 161.48ZM30.5652 168.36C30.9319 168.36 31.2486 168.257 31.5152 168.05C31.7819 167.843 31.9886 167.517 32.1352 167.07C32.2819 166.617 32.3552 166.03 32.3552 165.31C32.3552 164.577 32.2786 163.983 32.1252 163.53C31.9786 163.077 31.7686 162.743 31.4952 162.53C31.2286 162.317 30.9152 162.21 30.5552 162.21C30.1952 162.21 29.8786 162.317 29.6052 162.53C29.3386 162.743 29.1286 163.08 28.9752 163.54C28.8286 163.993 28.7552 164.583 28.7552 165.31C28.7552 166.03 28.8286 166.617 28.9752 167.07C29.1286 167.517 29.3419 167.843 29.6152 168.05C29.8886 168.257 30.2052 168.36 30.5652 168.36Z" fill="#5B5B5B"/>
<path d="M26.7305 187.16C26.7305 187.513 26.6405 187.833 26.4605 188.12C26.2872 188.4 26.0439 188.627 25.7305 188.8C25.4172 188.967 25.0505 189.06 24.6305 189.08C24.5839 189.08 24.5505 189.087 24.5305 189.1C24.5172 189.113 24.5105 189.14 24.5105 189.18V189.74C24.5105 189.827 24.4639 189.87 24.3705 189.87H24.0205C23.9339 189.87 23.8905 189.837 23.8905 189.77V189.17C23.8905 189.13 23.8839 189.103 23.8705 189.09C23.8639 189.083 23.8405 189.08 23.8005 189.08C23.2472 189.067 22.7872 188.967 22.4205 188.78C22.0605 188.593 21.7439 188.323 21.4705 187.97C21.3905 187.883 21.3839 187.81 21.4505 187.75L21.7805 187.44C21.8139 187.407 21.8505 187.39 21.8905 187.39C21.9305 187.39 21.9639 187.407 21.9905 187.44C22.2172 187.727 22.4705 187.953 22.7505 188.12C23.0305 188.28 23.3805 188.367 23.8005 188.38C23.8672 188.387 23.9005 188.36 23.9005 188.3V185.85C23.9005 185.797 23.8839 185.75 23.8505 185.71C23.8172 185.67 23.7672 185.637 23.7005 185.61C23.1939 185.423 22.7905 185.233 22.4905 185.04C22.1905 184.847 21.9739 184.627 21.8405 184.38C21.7139 184.133 21.6505 183.85 21.6505 183.53C21.6505 183.17 21.7372 182.85 21.9105 182.57C22.0905 182.29 22.3372 182.06 22.6505 181.88C22.9705 181.693 23.3439 181.577 23.7705 181.53C23.8039 181.523 23.8305 181.513 23.8505 181.5C23.8772 181.48 23.8905 181.453 23.8905 181.42V180.93C23.8905 180.903 23.8972 180.883 23.9105 180.87C23.9305 180.85 23.9539 180.84 23.9805 180.84H24.3805C24.4272 180.84 24.4572 180.85 24.4705 180.87C24.4905 180.89 24.5005 180.923 24.5005 180.97V181.45C24.5005 181.497 24.5339 181.523 24.6005 181.53C24.9872 181.583 25.3272 181.683 25.6205 181.83C25.9205 181.977 26.1939 182.17 26.4405 182.41C26.5139 182.463 26.5172 182.523 26.4505 182.59L26.1005 182.95C26.0672 182.983 26.0372 183 26.0105 183C25.9905 182.993 25.9572 182.967 25.9105 182.92C25.7705 182.753 25.5872 182.61 25.3605 182.49C25.1339 182.37 24.8805 182.287 24.6005 182.24C24.5672 182.233 24.5405 182.237 24.5205 182.25C24.5072 182.263 24.5005 182.287 24.5005 182.32V184.83C24.5005 184.897 24.5405 184.943 24.6205 184.97L25.0005 185.1C25.3672 185.24 25.6805 185.41 25.9405 185.61C26.2005 185.803 26.3972 186.03 26.5305 186.29C26.6639 186.543 26.7305 186.833 26.7305 187.16ZM23.8905 182.31C23.8905 182.23 23.8539 182.2 23.7805 182.22C23.3739 182.267 23.0505 182.403 22.8105 182.63C22.5705 182.857 22.4505 183.137 22.4505 183.47C22.4505 183.637 22.4872 183.793 22.5605 183.94C22.6405 184.08 22.7705 184.213 22.9505 184.34C23.1305 184.467 23.3772 184.597 23.6905 184.73C23.7505 184.75 23.7972 184.75 23.8305 184.73C23.8705 184.71 23.8905 184.663 23.8905 184.59V182.31ZM24.5105 188.32C24.5105 188.367 24.5405 188.387 24.6005 188.38C25.0072 188.367 25.3305 188.253 25.5705 188.04C25.8105 187.82 25.9305 187.547 25.9305 187.22C25.9305 186.913 25.8305 186.66 25.6305 186.46C25.4305 186.253 25.1072 186.063 24.6605 185.89C24.6139 185.877 24.5772 185.877 24.5505 185.89C24.5239 185.897 24.5105 185.927 24.5105 185.98V188.32ZM30.5652 181.48C30.9586 181.48 31.3219 181.563 31.6552 181.73C31.9952 181.89 32.2886 182.133 32.5352 182.46C32.7886 182.787 32.9852 183.19 33.1252 183.67C33.2652 184.143 33.3352 184.69 33.3352 185.31C33.3352 186.137 33.2119 186.83 32.9652 187.39C32.7252 187.95 32.3952 188.373 31.9752 188.66C31.5552 188.947 31.0819 189.09 30.5552 189.09C30.0219 189.09 29.5452 188.947 29.1252 188.66C28.7052 188.373 28.3752 187.95 28.1352 187.39C27.8952 186.83 27.7752 186.14 27.7752 185.32C27.7752 184.7 27.8452 184.153 27.9852 183.68C28.1252 183.2 28.3219 182.797 28.5752 182.47C28.8286 182.137 29.1252 181.89 29.4652 181.73C29.8052 181.563 30.1719 181.48 30.5652 181.48ZM30.5652 188.36C30.9319 188.36 31.2486 188.257 31.5152 188.05C31.7819 187.843 31.9886 187.517 32.1352 187.07C32.2819 186.617 32.3552 186.03 32.3552 185.31C32.3552 184.577 32.2786 183.983 32.1252 183.53C31.9786 183.077 31.7686 182.743 31.4952 182.53C31.2286 182.317 30.9152 182.21 30.5552 182.21C30.1952 182.21 29.8786 182.317 29.6052 182.53C29.3386 182.743 29.1286 183.08 28.9752 183.54C28.8286 183.993 28.7552 184.583 28.7552 185.31C28.7552 186.03 28.8286 186.617 28.9752 187.07C29.1286 187.517 29.3419 187.843 29.6152 188.05C29.8886 188.257 30.2052 188.36 30.5652 188.36Z" fill="#5B5B5B"/>
<defs>
<linearGradient id="paint0_linear_721_3" x1="166.5" y1="26.4375" x2="166.5" y2="184" gradientUnits="userSpaceOnUse">
<stop stop-color="#23587B" stop-opacity="0.2"/>
<stop offset="1" stop-color="#23587B" stop-opacity="0"/>
</linearGradient>
<linearGradient id="paint1_linear_721_3" x1="166.5" y1="26.4376" x2="166.5" y2="185" gradientUnits="userSpaceOnUse">
<stop stop-color="#FF823E" stop-opacity="0.2"/>
<stop offset="1" stop-color="#FF823E" stop-opacity="0"/>
</linearGradient>
</defs>
</svg>
