<svg width="16" height="16" viewBox="0 0 16 16" fill="none" xmlns="http://www.w3.org/2000/svg">
<path d="M14.9999 2.39844H5.00391" stroke="#304857" stroke-linecap="round" stroke-linejoin="round"/>
<path d="M2.204 2.39844H1" stroke="#304857" stroke-linecap="round" stroke-linejoin="round"/>
<path d="M3.6041 3.8C4.3773 3.8 5.0041 3.1732 5.0041 2.4C5.0041 1.6268 4.3773 1 3.6041 1C2.8309 1 2.2041 1.6268 2.2041 2.4C2.2041 3.1732 2.8309 3.8 3.6041 3.8Z" stroke="#304857" stroke-linecap="round" stroke-linejoin="round"/>
<path d="M15.0001 8H8.95215" stroke="#304857" stroke-linecap="round" stroke-linejoin="round"/>
<path d="M6.152 8H1" stroke="#304857" stroke-linecap="round" stroke-linejoin="round"/>
<path d="M7.55186 9.40156C8.32505 9.40156 8.95186 8.77476 8.95186 8.00156C8.95186 7.22836 8.32505 6.60156 7.55186 6.60156C6.77866 6.60156 6.15186 7.22836 6.15186 8.00156C6.15186 8.77476 6.77866 9.40156 7.55186 9.40156Z" stroke="#304857" stroke-linecap="round" stroke-linejoin="round"/>
<path d="M14.9999 13.6016H13.7959" stroke="#304857" stroke-linecap="round" stroke-linejoin="round"/>
<path d="M10.996 13.6016H1" stroke="#304857" stroke-linecap="round" stroke-linejoin="round"/>
<path d="M12.3961 14.9992C13.1693 14.9992 13.7961 14.3724 13.7961 13.5992C13.7961 12.826 13.1693 12.1992 12.3961 12.1992C11.6229 12.1992 10.9961 12.826 10.9961 13.5992C10.9961 14.3724 11.6229 14.9992 12.3961 14.9992Z" stroke="#304857" stroke-linecap="round" stroke-linejoin="round"/>
</svg>
