<svg width="16" height="16" viewBox="0 0 16 16" fill="none" xmlns="http://www.w3.org/2000/svg">
<path d="M8.00034 -0.000920057C9.02097 -0.000920057 9.84834 0.825635 9.84834 1.84524C9.84834 2.86485 9.02097 3.69141 8.00034 3.69141C6.97972 3.69141 6.15234 2.86485 6.15234 1.84524C6.15234 0.825635 6.97972 -0.000920057 8.00034 -0.000920057Z" fill="#282828"/>
<path d="M1.848 -0.000920057C2.86862 -0.000920057 3.696 0.825635 3.696 1.84524C3.696 2.86485 2.86862 3.69141 1.848 3.69141C0.827378 3.69141 0 2.86485 0 1.84524C0 0.825635 0.827378 -0.000920057 1.848 -0.000920057Z" fill="#282828"/>
<path d="M14.1527 -0.000920057C15.1733 -0.000920057 16.0007 0.825635 16.0007 1.84524C16.0007 2.86485 15.1733 3.69141 14.1527 3.69141C13.1321 3.69141 12.3047 2.86485 12.3047 1.84524C12.3047 0.825635 13.1321 -0.000920057 14.1527 -0.000920057Z" fill="#282828"/>
<path d="M1.848 6.15533C2.86862 6.15533 3.696 6.98189 3.696 8.00149C3.696 9.0211 2.86862 9.84766 1.848 9.84766C0.827378 9.84766 0 9.0211 0 8.00149C0 6.98189 0.827378 6.15533 1.848 6.15533Z" fill="#282828"/>
<path d="M8.00034 6.15533C9.02097 6.15533 9.84834 6.98189 9.84834 8.00149C9.84834 9.0211 9.02097 9.84766 8.00034 9.84766C6.97972 9.84766 6.15234 9.0211 6.15234 8.00149C6.15234 6.98189 6.97972 6.15533 8.00034 6.15533Z" fill="#282828"/>
<path d="M14.1527 6.15533C15.1733 6.15533 16.0007 6.98189 16.0007 8.00149C16.0007 9.0211 15.1733 9.84766 14.1527 9.84766C13.1321 9.84766 12.3047 9.0211 12.3047 8.00149C12.3047 6.98189 13.1321 6.15533 14.1527 6.15533Z" fill="#282828"/>
<path d="M8.00034 12.3077C9.02097 12.3077 9.84834 13.1342 9.84834 14.1538C9.84834 15.1734 9.02097 16 8.00034 16C6.97972 16 6.15234 15.1734 6.15234 14.1538C6.15234 13.1342 6.97972 12.3077 8.00034 12.3077Z" fill="#282828"/>
<path d="M1.848 12.3077C2.86862 12.3077 3.696 13.1342 3.696 14.1538C3.696 15.1734 2.86862 16 1.848 16C0.827378 16 0 15.1734 0 14.1538C0 13.1342 0.827378 12.3077 1.848 12.3077Z" fill="#282828"/>
<path d="M14.1527 12.3077C15.1733 12.3077 16.0007 13.1342 16.0007 14.1538C16.0007 15.1734 15.1733 16 14.1527 16C13.1321 16 12.3047 15.1734 12.3047 14.1538C12.3047 13.1342 13.1321 12.3077 14.1527 12.3077Z" fill="#282828"/>
</svg>
