<svg width="17" height="20" viewBox="0 0 17 20" fill="none" xmlns="http://www.w3.org/2000/svg">
<path d="M14.4087 1.50805C13.4841 0.452529 11.8126 0 9.67436 0H3.46846C3.2569 7.84562e-06 3.05227 0.0756013 2.89138 0.21319C2.73049 0.350778 2.62388 0.541336 2.59073 0.750604L0.00670558 17.1641C-0.0446563 17.4878 0.205584 17.7809 0.533132 17.7809H4.36444L5.32665 11.6685L5.29678 11.8599C5.36533 11.4278 5.73429 11.1091 6.1712 11.1091H7.99182C11.5684 11.1091 14.369 9.65417 15.1871 5.4453C15.2114 5.32082 15.2324 5.19966 15.2506 5.0813C15.1473 5.02653 15.1473 5.02653 15.2506 5.0813C15.4942 3.52566 15.2489 2.46674 14.4087 1.50805Z" fill="#003087"/>
<path d="M6.79265 4.5209C6.89739 4.47095 7.01195 4.44507 7.12796 4.44514H11.9933C12.5694 4.44514 13.1068 4.48269 13.5978 4.56184C13.7352 4.58379 13.8719 4.60998 14.0077 4.6404C14.2002 4.68293 14.3904 4.73499 14.5778 4.79638C14.8192 4.87713 15.044 4.97117 15.2506 5.0813C15.4942 3.52506 15.2489 2.46674 14.4087 1.50805C13.4836 0.452529 11.8126 0 9.67436 0H3.46793C3.03095 0 2.65921 0.318611 2.59073 0.750604L0.00670594 17.1635C-0.044656 17.4877 0.205584 17.7804 0.532601 17.7804H4.36444L6.36072 5.10177C6.38035 4.97715 6.42991 4.85917 6.50515 4.75798C6.5804 4.6568 6.67906 4.57544 6.79265 4.5209Z" fill="#003087"/>
<path d="M15.1877 5.44603C14.3696 9.65431 11.5691 11.1099 7.99245 11.1099H6.17129C5.73438 11.1099 5.36536 11.4285 5.29748 11.8606L4.10043 19.4607C4.0557 19.7439 4.27442 20.0006 4.56056 20.0006H7.79025C7.97526 20.0005 8.15418 19.9344 8.29484 19.814C8.43549 19.6937 8.52865 19.527 8.55756 19.344L8.58902 19.1791L9.19773 15.3154L9.23695 15.1019C9.26586 14.9189 9.35901 14.7522 9.49965 14.6318C9.64029 14.5115 9.8192 14.4453 10.0042 14.4452H10.4876C13.6162 14.4452 16.066 13.1723 16.7818 9.49062C17.0807 7.95206 16.926 6.66751 16.1356 5.76524C15.8958 5.49196 15.5981 5.26626 15.2512 5.08203C15.2324 5.201 15.2121 5.32155 15.1877 5.44603Z" fill="#00A3E5"/>
<path d="M14.3947 4.73967C14.2671 4.70236 14.1384 4.66934 14.0086 4.64064C13.8728 4.61072 13.7361 4.5847 13.5987 4.56262C13.1071 4.48293 12.5702 4.44531 11.9935 4.44531H7.12879C7.01269 4.44505 6.89804 4.47116 6.79347 4.52168C6.67975 4.57605 6.58098 4.65736 6.50571 4.75857C6.43043 4.85978 6.38093 4.97785 6.36148 5.10254L5.32747 11.6687L5.29761 11.8601C5.36563 11.428 5.73458 11.1094 6.17156 11.1094H7.99271C11.5693 11.1094 14.3698 9.65441 15.1879 5.44554C15.2122 5.32106 15.2327 5.20044 15.2515 5.08154C15.0443 4.97201 14.8201 4.87737 14.5786 4.79716C14.5177 4.77693 14.4564 4.75776 14.3948 4.73967" fill="#012169"/>
</svg>
