<svg width="120" height="56" viewBox="0 0 120 56" fill="none" xmlns="http://www.w3.org/2000/svg">
<mask id="path-1-inside-1_572_51123" fill="white">
<path fill-rule="evenodd" clip-rule="evenodd" d="M8 0C3.58172 0 0 3.58172 0 8L0 48C0 52.4183 3.58172 56 8 56L103.628 56C108.046 56 111.628 52.4183 111.628 48L111.628 42L114 42C117.314 42 120 39.3137 120 36L120 20C120 16.6863 117.314 14 114 14L111.628 14L111.628 8C111.628 3.58172 108.046 0 103.628 0L8 0Z"/>
</mask>
<path d="M111.628 42V41H110.628V42H111.628ZM111.628 14L110.628 14V15L111.628 15V14ZM1 8C1 4.13401 4.13401 1 8 1L8 -1C3.02944 -1 -1 3.02944 -1 8L1 8ZM1 48L1 8L-1 8L-1 48H1ZM8 55C4.13401 55 1 51.866 1 48H-1C-1 52.9706 3.02944 57 8 57L8 55ZM103.628 55L8 55L8 57L103.628 57V55ZM110.628 48C110.628 51.866 107.494 55 103.628 55V57C108.598 57 112.628 52.9706 112.628 48H110.628ZM110.628 42L110.628 48H112.628L112.628 42H110.628ZM114 41L111.628 41V43L114 43V41ZM119 36C119 38.7614 116.761 41 114 41V43C117.866 43 121 39.866 121 36H119ZM119 20L119 36H121L121 20L119 20ZM114 15C116.761 15 119 17.2386 119 20L121 20C121 16.134 117.866 13 114 13V15ZM111.628 15L114 15V13L111.628 13V15ZM110.628 8L110.628 14L112.628 14L112.628 8L110.628 8ZM103.628 1C107.494 1 110.628 4.13401 110.628 8L112.628 8C112.628 3.02944 108.598 -1 103.628 -1V1ZM8 1L103.628 1V-1L8 -1L8 1Z" fill="black" mask="url(#path-1-inside-1_572_51123)"/>
</svg>
